<svg width="371" height="335" viewBox="0 0 371 335" fill="none" xmlns="http://www.w3.org/2000/svg">
<g id="Frame 3">
<path id="Vector" d="M322.825 227.734C293.456 308.38 248.459 295.84 179.051 284.064C167.781 282.147 149.403 283.073 138.507 279.496C137.977 279.323 137.446 279.15 136.915 278.969C134.086 278.021 131.255 277.014 128.423 275.947C123.5 274.091 118.696 272.097 114.011 269.968C111.41 268.791 83.7504 254.841 81.2303 253.587C53.4069 234.146 68.1363 246.088 52.1843 228.496C50.1905 226.299 41.1323 216.348 39.2937 214.094C35.9232 209.977 32.7807 205.711 29.8794 201.313C10.6973 172.252 42.2315 116.027 65.8272 95.5959C145.851 68.209 120.722 40.865 204.427 58.8413C357.319 69.2056 361.97 149.511 322.825 227.734Z" fill="#F0F0F0"/>
<path id="Vector_2" d="M316.929 256.576H25.1019C24.9898 256.576 24.8822 256.534 24.8029 256.46C24.7235 256.385 24.679 256.284 24.679 256.178C24.679 256.072 24.7235 255.971 24.8029 255.896C24.8822 255.821 24.9898 255.779 25.1019 255.779H316.929C317.041 255.779 317.148 255.821 317.228 255.896C317.307 255.971 317.352 256.072 317.352 256.178C317.352 256.284 317.307 256.385 317.228 256.46C317.148 256.534 317.041 256.576 316.929 256.576Z" fill="#CCCCCC"/>
<path id="Vector_3" d="M288.044 187.056H116.331C115.602 187.056 114.903 187.329 114.387 187.814C113.872 188.3 113.582 188.959 113.582 189.647C113.582 190.334 113.872 190.993 114.387 191.479C114.903 191.965 115.602 192.238 116.331 192.238H121.195V254.224C121.195 254.911 121.485 255.57 122 256.056C122.516 256.542 123.215 256.815 123.944 256.815C124.673 256.815 125.373 256.542 125.888 256.056C126.404 255.57 126.693 254.911 126.693 254.224L126.735 192.238H277.259V254.224C277.259 254.911 277.549 255.57 278.064 256.056C278.58 256.542 279.279 256.815 280.008 256.815C280.737 256.815 281.437 256.542 281.952 256.056C282.468 255.57 282.757 254.911 282.757 254.224V193.604L283.557 192.238H288.044C288.773 192.238 289.472 191.965 289.988 191.479C290.503 190.993 290.793 190.334 290.793 189.647C290.793 188.959 290.503 188.3 289.988 187.814C289.472 187.329 288.773 187.056 288.044 187.056V187.056Z" fill="#CCCCCC"/>
<path id="Vector_4" d="M211.53 188.412H159.517C158.509 188.411 157.544 188.033 156.832 187.362C156.12 186.691 155.719 185.78 155.718 184.831V157.841C155.719 156.891 156.12 155.981 156.832 155.31C157.544 154.639 158.509 154.261 159.517 154.26H211.53C212.537 154.261 213.503 154.639 214.215 155.31C214.927 155.981 215.328 156.891 215.329 157.841V184.831C215.328 185.78 214.927 186.691 214.215 187.362C213.503 188.033 212.537 188.411 211.53 188.412V188.412Z" fill="#3F3D56"/>
<path id="Vector_5" d="M211.53 157.016H159.517C159.285 157.016 159.062 157.103 158.898 157.258C158.734 157.413 158.642 157.622 158.642 157.841V184.832C158.642 185.051 158.734 185.26 158.898 185.415C159.063 185.57 159.285 185.657 159.517 185.657H211.53C211.762 185.657 211.984 185.57 212.148 185.415C212.313 185.26 212.405 185.051 212.405 184.832V157.841C212.405 157.622 212.313 157.413 212.148 157.258C211.984 157.103 211.762 157.016 211.53 157.016V157.016Z" fill="white"/>
<path id="Vector_6" d="M189.96 176.125C189.96 176.125 183.733 174.773 180.308 177.252C176.884 179.731 184.667 185.366 184.667 185.366L189.96 176.125Z" fill="#2F2E41"/>
<path id="Vector_7" d="M185.828 173.57C189.072 173.57 191.702 171.092 191.702 168.034C191.702 164.977 189.072 162.499 185.828 162.499C182.585 162.499 179.955 164.977 179.955 168.034C179.955 171.092 182.585 173.57 185.828 173.57Z" fill="#A0616A"/>
<path id="Vector_8" d="M181.287 160.264C181.678 159.637 182.246 159.125 182.927 158.783C183.608 158.441 184.376 158.284 185.147 158.328C185.952 158.423 186.738 158.631 187.479 158.943L191.319 160.355C192.312 160.72 193.401 161.168 193.832 162.087C194.232 162.94 193.933 163.926 193.631 164.814L192.195 169.037C192.035 168.081 191.762 167.145 191.38 166.247C190.992 165.343 190.291 164.59 189.391 164.109C188.393 163.627 187.218 163.637 186.098 163.688C184.513 163.76 182.789 163.95 181.662 165.004C181.064 165.603 180.659 166.349 180.493 167.156C180.33 167.959 180.248 168.775 180.248 169.593C179.597 168.539 179.05 167.432 178.611 166.286C178.25 165.432 178.045 164.527 178.003 163.609C177.965 162.683 178.291 161.777 178.919 161.063C179.237 160.714 179.652 160.456 180.118 160.318C180.584 160.18 181.081 160.167 181.554 160.281L181.287 160.264Z" fill="#2F2E41"/>
<path id="Vector_9" d="M199.853 180.925C199.797 180.738 199.685 180.571 199.529 180.444C199.373 180.317 199.181 180.236 198.977 180.212C198.964 180.203 198.949 180.195 198.935 180.188L190.167 175.557C189.916 175.424 189.621 175.388 189.344 175.456C189.066 175.523 188.826 175.689 188.674 175.919L186.276 179.578L182.664 176.174L182.607 176.12C182.422 175.945 182.177 175.837 181.916 175.816C181.655 175.794 181.394 175.86 181.179 176.002L173.973 180.758C173.96 180.758 173.948 180.762 173.935 180.762C173.59 180.816 173.275 180.98 173.042 181.225C172.809 181.471 172.672 181.784 172.653 182.113L172.467 185.657H201.244L199.853 180.925Z" fill="#6C63FF"/>
<path id="Vector_10" d="M215.913 185.107H210.361C210.361 184.961 210.3 184.82 210.19 184.717C210.081 184.614 209.932 184.556 209.777 184.556H208.024C207.869 184.556 207.72 184.614 207.61 184.717C207.501 184.82 207.439 184.961 207.439 185.107H205.686C205.686 184.961 205.624 184.82 205.515 184.717C205.405 184.614 205.257 184.556 205.102 184.556H203.348C203.193 184.556 203.045 184.614 202.935 184.717C202.826 184.82 202.764 184.961 202.764 185.107H201.011C201.011 184.961 200.949 184.82 200.839 184.717C200.73 184.614 200.581 184.556 200.426 184.556H198.673C198.518 184.556 198.369 184.614 198.26 184.717C198.15 184.82 198.089 184.961 198.089 185.107H196.335C196.335 184.961 196.274 184.82 196.164 184.717C196.055 184.614 195.906 184.556 195.751 184.556H193.998C193.843 184.556 193.694 184.614 193.584 184.717C193.475 184.82 193.413 184.961 193.413 185.107H191.66C191.66 184.961 191.598 184.82 191.489 184.717C191.379 184.614 191.23 184.556 191.075 184.556H189.322C189.167 184.556 189.019 184.614 188.909 184.717C188.799 184.82 188.738 184.961 188.738 185.107H186.985C186.985 184.961 186.923 184.82 186.813 184.717C186.704 184.614 186.555 184.556 186.4 184.556H184.647C184.492 184.556 184.343 184.614 184.234 184.717C184.124 184.82 184.062 184.961 184.062 185.107H182.309C182.309 184.961 182.248 184.82 182.138 184.717C182.028 184.614 181.88 184.556 181.725 184.556H179.971C179.816 184.556 179.668 184.614 179.558 184.717C179.449 184.82 179.387 184.961 179.387 185.107H177.634C177.634 184.961 177.572 184.82 177.463 184.717C177.353 184.614 177.204 184.556 177.049 184.556H175.296C175.141 184.556 174.992 184.614 174.883 184.717C174.773 184.82 174.712 184.961 174.712 185.107H172.958C172.958 184.961 172.897 184.82 172.787 184.717C172.678 184.614 172.529 184.556 172.374 184.556H170.621C170.466 184.556 170.317 184.614 170.207 184.717C170.098 184.82 170.036 184.961 170.036 185.107H168.283C168.283 184.961 168.221 184.82 168.112 184.717C168.002 184.614 167.854 184.556 167.699 184.556H165.945C165.79 184.556 165.642 184.614 165.532 184.717C165.422 184.82 165.361 184.961 165.361 185.107H163.608C163.608 184.961 163.546 184.82 163.436 184.717C163.327 184.614 163.178 184.556 163.023 184.556H161.27C161.115 184.556 160.966 184.614 160.857 184.717C160.747 184.82 160.685 184.961 160.685 185.107H155.133C154.669 185.107 154.224 185.282 153.895 185.592C153.567 185.901 153.383 186.321 153.383 186.759C153.383 187.197 153.567 187.617 153.895 187.927C154.224 188.237 154.669 188.411 155.133 188.412H215.913C216.378 188.412 216.824 188.238 217.153 187.928C217.482 187.618 217.667 187.197 217.667 186.759C217.667 186.321 217.482 185.901 217.153 185.591C216.824 185.281 216.378 185.107 215.913 185.107V185.107Z" fill="#3F3D56"/>
<path id="Vector_11" d="M146.095 175.51V186.483H116.929C116.147 186.508 115.368 186.385 114.638 186.121C113.908 185.857 113.242 185.457 112.68 184.945C112.118 184.433 111.67 183.82 111.365 183.141C111.059 182.463 110.902 181.733 110.902 180.996C110.902 180.259 111.059 179.53 111.365 178.852C111.67 178.173 112.118 177.56 112.68 177.048C113.242 176.536 113.908 176.136 114.638 175.872C115.368 175.607 116.147 175.485 116.929 175.51H146.095Z" fill="#F2F2F2"/>
<path id="Vector_12" d="M146.812 186.398C146.812 186.51 146.765 186.617 146.681 186.697C146.597 186.776 146.483 186.82 146.364 186.82H116.409C114.782 186.82 113.222 186.211 112.072 185.127C110.921 184.043 110.275 182.572 110.275 181.039C110.275 179.505 110.921 178.035 112.072 176.95C113.222 175.866 114.782 175.257 116.409 175.257H146.364C146.483 175.257 146.597 175.301 146.681 175.381C146.765 175.46 146.812 175.567 146.812 175.679C146.812 175.791 146.765 175.898 146.681 175.977C146.597 176.057 146.483 176.101 146.364 176.101H116.409C115.021 176.102 113.689 176.623 112.708 177.549C111.727 178.475 111.175 179.73 111.175 181.039C111.175 182.347 111.727 183.603 112.708 184.528C113.689 185.454 115.021 185.975 116.409 185.976H146.364C146.483 185.976 146.597 186.021 146.681 186.1C146.765 186.179 146.812 186.286 146.812 186.398V186.398Z" fill="#6C63FF"/>
<path id="Vector_13" d="M146.095 178.042H114.753C114.741 178.042 114.729 178.04 114.718 178.036C114.707 178.032 114.697 178.026 114.689 178.018C114.68 178.01 114.674 178.001 114.669 177.99C114.665 177.98 114.662 177.969 114.662 177.958C114.662 177.947 114.665 177.936 114.669 177.925C114.674 177.915 114.68 177.906 114.689 177.898C114.697 177.89 114.707 177.884 114.718 177.88C114.729 177.876 114.741 177.873 114.753 177.873H146.095C146.119 177.874 146.142 177.883 146.158 177.898C146.175 177.914 146.184 177.936 146.184 177.958C146.184 177.98 146.175 178.002 146.158 178.017C146.142 178.033 146.119 178.042 146.095 178.042V178.042Z" fill="#CCCCCC"/>
<path id="Vector_14" d="M146.095 180.068H114.753C114.741 180.068 114.729 180.066 114.718 180.062C114.707 180.058 114.697 180.051 114.689 180.043C114.68 180.036 114.674 180.026 114.669 180.016C114.665 180.006 114.662 179.995 114.662 179.984C114.662 179.972 114.665 179.961 114.669 179.951C114.674 179.941 114.68 179.932 114.689 179.924C114.697 179.916 114.707 179.91 114.718 179.905C114.729 179.901 114.741 179.899 114.753 179.899H146.095C146.119 179.899 146.142 179.908 146.158 179.924C146.175 179.94 146.184 179.961 146.184 179.984C146.184 180.006 146.175 180.027 146.158 180.043C146.142 180.059 146.119 180.068 146.095 180.068V180.068Z" fill="#CCCCCC"/>
<path id="Vector_15" d="M146.095 182.094H114.753C114.741 182.094 114.729 182.092 114.718 182.087C114.707 182.083 114.697 182.077 114.689 182.069C114.68 182.061 114.674 182.052 114.669 182.042C114.665 182.031 114.662 182.02 114.662 182.009C114.662 181.998 114.665 181.987 114.669 181.977C114.674 181.967 114.68 181.957 114.689 181.949C114.697 181.942 114.707 181.935 114.718 181.931C114.729 181.927 114.741 181.925 114.753 181.925H146.095C146.119 181.925 146.142 181.934 146.158 181.95C146.175 181.966 146.184 181.987 146.184 182.009C146.184 182.032 146.175 182.053 146.158 182.069C146.142 182.085 146.119 182.094 146.095 182.094V182.094Z" fill="#CCCCCC"/>
<path id="Vector_16" d="M146.095 184.119H114.753C114.741 184.119 114.729 184.117 114.718 184.113C114.707 184.109 114.697 184.103 114.689 184.095C114.68 184.087 114.674 184.078 114.669 184.067C114.665 184.057 114.662 184.046 114.662 184.035C114.662 184.024 114.665 184.013 114.669 184.002C114.674 183.992 114.68 183.983 114.689 183.975C114.697 183.967 114.707 183.961 114.718 183.957C114.729 183.953 114.741 183.95 114.753 183.951H146.095C146.119 183.951 146.142 183.96 146.158 183.975C146.175 183.991 146.184 184.013 146.184 184.035C146.184 184.057 146.175 184.079 146.158 184.094C146.142 184.11 146.119 184.119 146.095 184.119Z" fill="#CCCCCC"/>
<path id="Vector_17" d="M140.597 163.95V174.922H111.431C110.649 174.948 109.87 174.825 109.14 174.561C108.41 174.297 107.744 173.897 107.182 173.385C106.619 172.873 106.172 172.259 105.867 171.581C105.561 170.903 105.404 170.173 105.404 169.436C105.404 168.699 105.561 167.97 105.867 167.291C106.172 166.613 106.619 166 107.182 165.488C107.744 164.976 108.41 164.576 109.14 164.312C109.87 164.047 110.649 163.924 111.431 163.95H140.597Z" fill="#F2F2F2"/>
<path id="Vector_18" d="M141.314 174.838C141.314 174.95 141.266 175.057 141.183 175.136C141.099 175.216 140.985 175.26 140.866 175.26H110.911C110.106 175.26 109.308 175.111 108.564 174.82C107.819 174.529 107.143 174.104 106.574 173.567C106.004 173.03 105.552 172.392 105.244 171.691C104.935 170.99 104.777 170.238 104.777 169.478C104.777 168.719 104.935 167.967 105.244 167.266C105.552 166.564 106.004 165.927 106.574 165.39C107.143 164.853 107.819 164.428 108.564 164.137C109.308 163.846 110.106 163.697 110.911 163.697H140.866C140.985 163.697 141.099 163.741 141.183 163.82C141.267 163.9 141.314 164.007 141.314 164.119C141.314 164.231 141.267 164.338 141.183 164.417C141.099 164.496 140.985 164.541 140.866 164.541H110.911C109.522 164.542 108.191 165.063 107.21 165.989C106.228 166.915 105.677 168.17 105.677 169.478C105.677 170.787 106.228 172.042 107.21 172.968C108.191 173.894 109.522 174.415 110.911 174.416H140.866C140.985 174.416 141.099 174.461 141.182 174.54C141.266 174.619 141.314 174.726 141.314 174.838V174.838Z" fill="#3F3D56"/>
<path id="Vector_19" d="M140.597 166.482H109.254C109.243 166.482 109.231 166.48 109.22 166.476C109.209 166.472 109.199 166.466 109.191 166.458C109.182 166.45 109.176 166.44 109.171 166.43C109.167 166.42 109.164 166.409 109.164 166.398C109.164 166.387 109.167 166.376 109.171 166.365C109.176 166.355 109.182 166.346 109.191 166.338C109.199 166.33 109.209 166.324 109.22 166.32C109.231 166.315 109.243 166.313 109.254 166.313H140.597C140.621 166.314 140.644 166.322 140.66 166.338C140.677 166.354 140.686 166.375 140.686 166.398C140.686 166.42 140.677 166.441 140.66 166.457C140.644 166.473 140.621 166.482 140.597 166.482V166.482Z" fill="#CCCCCC"/>
<path id="Vector_20" d="M140.597 168.508H109.254C109.243 168.508 109.231 168.506 109.22 168.502C109.209 168.497 109.199 168.491 109.191 168.483C109.182 168.475 109.176 168.466 109.171 168.456C109.167 168.446 109.164 168.435 109.164 168.423C109.164 168.412 109.167 168.401 109.171 168.391C109.176 168.381 109.182 168.371 109.191 168.364C109.199 168.356 109.209 168.35 109.22 168.345C109.231 168.341 109.243 168.339 109.254 168.339H140.597C140.621 168.339 140.644 168.348 140.66 168.364C140.677 168.38 140.686 168.401 140.686 168.423C140.686 168.446 140.677 168.467 140.66 168.483C140.644 168.499 140.621 168.508 140.597 168.508V168.508Z" fill="#CCCCCC"/>
<path id="Vector_21" d="M140.597 170.534H109.254C109.243 170.534 109.231 170.531 109.22 170.527C109.209 170.523 109.199 170.517 109.191 170.509C109.182 170.501 109.176 170.492 109.171 170.482C109.167 170.471 109.164 170.46 109.164 170.449C109.164 170.438 109.167 170.427 109.171 170.417C109.176 170.406 109.182 170.397 109.191 170.389C109.199 170.381 109.209 170.375 109.22 170.371C109.231 170.367 109.243 170.365 109.254 170.365H140.597C140.621 170.365 140.644 170.374 140.66 170.39C140.677 170.405 140.686 170.427 140.686 170.449C140.686 170.471 140.677 170.493 140.66 170.509C140.644 170.524 140.621 170.533 140.597 170.534V170.534Z" fill="#CCCCCC"/>
<path id="Vector_22" d="M140.597 172.559H109.254C109.243 172.559 109.231 172.557 109.22 172.553C109.209 172.549 109.199 172.543 109.191 172.535C109.182 172.527 109.176 172.517 109.171 172.507C109.167 172.497 109.164 172.486 109.164 172.475C109.164 172.464 109.167 172.453 109.171 172.442C109.176 172.432 109.182 172.423 109.191 172.415C109.199 172.407 109.209 172.401 109.22 172.397C109.231 172.392 109.243 172.39 109.254 172.39H140.597C140.621 172.391 140.644 172.399 140.66 172.415C140.677 172.431 140.686 172.452 140.686 172.475C140.686 172.497 140.677 172.518 140.66 172.534C140.644 172.55 140.621 172.559 140.597 172.559Z" fill="#CCCCCC"/>
<path id="Vector_23" d="M174.527 225.484V215.917C174.527 215.494 174.349 215.088 174.032 214.789C173.714 214.49 173.284 214.322 172.835 214.322H134.348C133.899 214.322 133.469 214.49 133.152 214.789C132.834 215.088 132.656 215.494 132.656 215.917V225.484H174.527Z" fill="#CCCCCC"/>
<path id="Vector_24" d="M174.527 229.071H132.656V241.429H174.527V229.071Z" fill="#CCCCCC"/>
<path id="Vector_25" d="M132.656 245.016V254.583C132.656 255.006 132.834 255.412 133.152 255.711C133.469 256.01 133.899 256.178 134.348 256.178H172.835C173.284 256.178 173.714 256.01 174.032 255.711C174.349 255.412 174.527 255.006 174.527 254.583V245.016H132.656Z" fill="#CCCCCC"/>
<path id="Vector_26" d="M153.38 221.497C154.081 221.497 154.649 220.962 154.649 220.302C154.649 219.641 154.081 219.106 153.38 219.106C152.679 219.106 152.111 219.641 152.111 220.302C152.111 220.962 152.679 221.497 153.38 221.497Z" fill="white"/>
<path id="Vector_27" d="M153.38 237.442C154.081 237.442 154.649 236.907 154.649 236.247C154.649 235.586 154.081 235.051 153.38 235.051C152.679 235.051 152.111 235.586 152.111 236.247C152.111 236.907 152.679 237.442 153.38 237.442Z" fill="white"/>
<path id="Vector_28" d="M153.448 253.05C154.149 253.05 154.717 252.514 154.717 251.854C154.717 251.193 154.149 250.658 153.448 250.658C152.747 250.658 152.179 251.193 152.179 251.854C152.179 252.514 152.747 253.05 153.448 253.05Z" fill="white"/>
<path id="Vector_29" d="M169.78 203.414V214.386H140.613C139.832 214.412 139.053 214.289 138.323 214.025C137.593 213.761 136.927 213.361 136.365 212.849C135.802 212.337 135.355 211.723 135.049 211.045C134.744 210.367 134.586 209.637 134.586 208.9C134.586 208.163 134.744 207.434 135.049 206.755C135.355 206.077 135.802 205.464 136.365 204.952C136.927 204.44 137.593 204.04 138.323 203.775C139.053 203.511 139.832 203.388 140.613 203.414H169.78Z" fill="#F2F2F2"/>
<path id="Vector_30" d="M170.496 214.302C170.496 214.414 170.449 214.521 170.365 214.6C170.281 214.679 170.167 214.724 170.049 214.724H140.094C139.288 214.725 138.49 214.576 137.745 214.285C137 213.995 136.323 213.569 135.753 213.032C135.183 212.495 134.73 211.858 134.422 211.156C134.113 210.454 133.954 209.702 133.954 208.942C133.954 208.183 134.113 207.43 134.422 206.729C134.73 206.027 135.183 205.389 135.753 204.852C136.323 204.315 137 203.89 137.745 203.599C138.49 203.309 139.288 203.16 140.094 203.161H170.049C170.167 203.161 170.281 203.205 170.365 203.284C170.449 203.363 170.496 203.471 170.496 203.583C170.496 203.695 170.449 203.802 170.365 203.881C170.281 203.96 170.167 204.005 170.049 204.005H140.094C138.705 204.006 137.374 204.527 136.392 205.453C135.411 206.378 134.86 207.634 134.86 208.942C134.86 210.251 135.411 211.506 136.392 212.432C137.374 213.358 138.705 213.879 140.094 213.88H170.049C170.167 213.88 170.281 213.924 170.365 214.004C170.449 214.083 170.496 214.19 170.496 214.302V214.302Z" fill="#3F3D56"/>
<path id="Vector_31" d="M169.78 205.946H138.437C138.425 205.946 138.414 205.944 138.403 205.94C138.392 205.936 138.382 205.929 138.373 205.922C138.365 205.914 138.358 205.904 138.354 205.894C138.349 205.884 138.347 205.873 138.347 205.862C138.347 205.85 138.349 205.839 138.354 205.829C138.358 205.819 138.365 205.81 138.373 205.802C138.382 205.794 138.392 205.788 138.403 205.783C138.414 205.779 138.425 205.777 138.437 205.777H169.78C169.804 205.777 169.826 205.786 169.843 205.802C169.86 205.818 169.869 205.839 169.869 205.862C169.869 205.884 169.86 205.905 169.843 205.921C169.826 205.937 169.804 205.946 169.78 205.946V205.946Z" fill="#CCCCCC"/>
<path id="Vector_32" d="M169.78 207.972H138.437C138.425 207.972 138.414 207.97 138.403 207.965C138.392 207.961 138.382 207.955 138.373 207.947C138.365 207.939 138.358 207.93 138.354 207.92C138.349 207.909 138.347 207.898 138.347 207.887C138.347 207.876 138.349 207.865 138.354 207.855C138.358 207.845 138.365 207.835 138.373 207.827C138.382 207.82 138.392 207.813 138.403 207.809C138.414 207.805 138.425 207.803 138.437 207.803H169.78C169.804 207.803 169.826 207.812 169.843 207.828C169.86 207.844 169.869 207.865 169.869 207.887C169.869 207.91 169.86 207.931 169.843 207.947C169.826 207.963 169.804 207.972 169.78 207.972V207.972Z" fill="#CCCCCC"/>
<path id="Vector_33" d="M169.78 209.997H138.437C138.425 209.997 138.414 209.995 138.403 209.991C138.392 209.987 138.382 209.981 138.373 209.973C138.365 209.965 138.358 209.956 138.354 209.945C138.349 209.935 138.347 209.924 138.347 209.913C138.347 209.902 138.349 209.891 138.354 209.881C138.358 209.87 138.365 209.861 138.373 209.853C138.382 209.845 138.392 209.839 138.403 209.835C138.414 209.831 138.425 209.829 138.437 209.829H169.78C169.804 209.829 169.826 209.838 169.843 209.854C169.86 209.869 169.869 209.891 169.869 209.913C169.869 209.935 169.86 209.957 169.843 209.972C169.826 209.988 169.804 209.997 169.78 209.997V209.997Z" fill="#CCCCCC"/>
<path id="Vector_34" d="M169.78 212.023H138.437C138.425 212.023 138.414 212.021 138.403 212.017C138.392 212.013 138.382 212.006 138.373 211.999C138.365 211.991 138.358 211.981 138.354 211.971C138.349 211.961 138.347 211.95 138.347 211.939C138.347 211.928 138.349 211.916 138.354 211.906C138.358 211.896 138.365 211.887 138.373 211.879C138.382 211.871 138.392 211.865 138.403 211.861C138.414 211.856 138.425 211.854 138.437 211.854H169.78C169.804 211.854 169.826 211.863 169.843 211.879C169.86 211.895 169.869 211.916 169.869 211.939C169.869 211.961 169.86 211.982 169.843 211.998C169.826 212.014 169.804 212.023 169.78 212.023V212.023Z" fill="#CCCCCC"/>
<path id="Vector_35" d="M130.46 131.798V61.8396C130.461 61.0447 130.796 60.2826 131.393 59.7205C131.989 59.1585 132.798 58.8423 133.641 58.8414H192.315C193.158 58.8423 193.967 59.1585 194.563 59.7205C195.159 60.2826 195.495 61.0447 195.496 61.8396V131.798C195.495 132.593 195.159 133.355 194.563 133.917C193.967 134.479 193.158 134.796 192.315 134.796H133.641C132.798 134.796 131.989 134.479 131.393 133.917C130.796 133.355 130.461 132.593 130.46 131.798V131.798ZM133.641 59.5076C132.985 59.5083 132.356 59.7542 131.892 60.1914C131.429 60.6286 131.168 61.2213 131.167 61.8396V131.798C131.168 132.417 131.429 133.009 131.892 133.446C132.356 133.884 132.985 134.13 133.641 134.13H192.315C192.971 134.13 193.599 133.884 194.063 133.446C194.527 133.009 194.788 132.417 194.789 131.798V61.8396C194.788 61.2213 194.527 60.6286 194.063 60.1914C193.599 59.7542 192.971 59.5083 192.315 59.5076H133.641Z" fill="#E6E6E6"/>
<path id="Vector_36" d="M166.268 90.9696V76.6049C166.269 76.2074 166.436 75.8264 166.734 75.5453C167.033 75.2643 167.437 75.1062 167.859 75.1058H180.774C181.196 75.1062 181.6 75.2643 181.898 75.5453C182.196 75.8264 182.364 76.2074 182.364 76.6049V90.9696C182.364 91.3671 182.196 91.7481 181.898 92.0291C181.6 92.3102 181.196 92.4683 180.774 92.4687H167.859C167.437 92.4683 167.033 92.3102 166.734 92.0291C166.436 91.7481 166.269 91.3671 166.268 90.9696V90.9696Z" fill="#6C63FF"/>
<path id="Vector_37" d="M141.173 97.6323V83.2676C141.173 82.8702 141.341 82.4891 141.639 82.2081C141.937 81.927 142.342 81.769 142.763 81.7685H155.679C156.1 81.769 156.505 81.927 156.803 82.2081C157.101 82.4891 157.269 82.8702 157.269 83.2676V97.6324C157.269 98.0298 157.101 98.4109 156.803 98.6919C156.505 98.973 156.1 99.131 155.679 99.1315H142.763C142.342 99.131 141.937 98.9729 141.639 98.6919C141.341 98.4108 141.173 98.0298 141.173 97.6323V97.6323Z" fill="#CCCCCC"/>
<path id="Vector_38" d="M161.32 117.954V103.589C161.32 103.192 161.488 102.81 161.786 102.529C162.084 102.248 162.489 102.09 162.91 102.09H175.826C176.247 102.09 176.651 102.248 176.95 102.529C177.248 102.81 177.416 103.192 177.416 103.589V117.954C177.416 118.351 177.248 118.732 176.95 119.013C176.651 119.294 176.247 119.452 175.826 119.453H162.91C162.489 119.452 162.084 119.294 161.786 119.013C161.488 118.732 161.32 118.351 161.32 117.954V117.954Z" fill="#FF6584"/>
<path id="Vector_39" d="M238.5 183.628H225.212C225.086 183.628 224.961 183.655 224.848 183.708L221.494 185.29C221.384 185.335 221.29 185.408 221.224 185.503C221.157 185.597 221.122 185.708 221.122 185.821C221.122 185.934 221.157 186.044 221.224 186.138C221.29 186.233 221.384 186.307 221.494 186.351L224.848 187.933C224.961 187.986 225.086 188.013 225.212 188.013H238.5C238.684 188.023 238.864 187.965 239.001 187.85C239.139 187.736 239.224 187.576 239.236 187.403V184.238C239.224 184.066 239.139 183.905 239.001 183.791C238.864 183.677 238.684 183.618 238.5 183.628Z" fill="#3F3D56"/>
<path id="Vector_40" d="M239.236 184.238V187.403C239.224 187.576 239.139 187.736 239.001 187.85C238.864 187.965 238.684 188.023 238.5 188.013H235.853V183.628H238.5C238.684 183.618 238.864 183.677 239.001 183.791C239.139 183.905 239.224 184.066 239.236 184.238V184.238Z" fill="#6C63FF"/>
<path id="Vector_41" d="M238.4 159.95C239.002 159.705 239.652 159.583 240.308 159.591C240.963 159.6 241.61 159.738 242.204 159.999C242.799 160.259 243.328 160.635 243.758 161.101C244.188 161.568 244.508 162.115 244.698 162.706C244.757 162.894 244.803 163.085 244.834 163.278L263.417 171.963L267.717 169.277L273.068 175.083L266.502 180.11C265.712 180.71 264.738 181.053 263.725 181.09C262.711 181.127 261.712 180.855 260.876 180.314L242.022 168.026C241.882 168.082 241.738 168.131 241.593 168.173C240.965 168.352 240.304 168.404 239.654 168.325C239.004 168.247 238.378 168.04 237.819 167.717C237.26 167.395 236.779 166.965 236.408 166.456C236.037 165.946 235.785 165.368 235.667 164.761C235.632 164.584 235.609 164.406 235.598 164.227C235.546 163.329 235.787 162.438 236.288 161.674C236.788 160.909 237.526 160.307 238.4 159.95V159.95Z" fill="#FFB8B8"/>
<path id="Vector_42" d="M277.105 213.425H256.8C256.8 213.975 235.873 214.421 235.873 214.421C235.545 214.654 235.246 214.922 234.981 215.219C234.186 216.112 233.752 217.242 233.754 218.408V219.205C233.755 220.526 234.312 221.793 235.303 222.728C236.295 223.662 237.639 224.187 239.041 224.188H277.105C278.507 224.186 279.851 223.661 280.842 222.727C281.834 221.793 282.391 220.526 282.392 219.205V218.408C282.39 217.087 281.833 215.82 280.842 214.886C279.851 213.952 278.507 213.427 277.105 213.425V213.425Z" fill="#3F3D56"/>
<path id="Vector_43" d="M255.018 257.474H260.516V223.99H255.018V257.474Z" fill="#3F3D56"/>
<path id="Vector_44" d="M239.369 257.292C239.369 257.852 247.701 257.509 257.979 257.509C268.256 257.509 276.588 257.852 276.588 257.292C276.588 256.732 268.256 252.292 257.979 252.292C247.701 252.292 239.369 256.732 239.369 257.292Z" fill="#3F3D56"/>
<path id="Vector_45" d="M244.333 253.368L239.148 253.367L236.681 240.692L244.334 240.692L244.333 253.368Z" fill="#FFB8B8"/>
<path id="Vector_46" d="M245.655 258.105L228.936 258.104V257.905C228.936 257.099 229.105 256.302 229.432 255.558C229.759 254.813 230.238 254.137 230.842 253.568C231.447 252.998 232.164 252.546 232.954 252.238C233.743 251.93 234.589 251.771 235.444 251.771H235.444L245.656 251.772L245.655 258.105Z" fill="#2F2E41"/>
<path id="Vector_47" d="M236.578 245.507L226.241 223.66C225.378 221.818 225.282 219.738 225.973 217.833C226.665 215.929 228.092 214.339 229.97 213.381L252.392 202.049L262.623 201.229L272.061 200.421L272.129 200.529C272.216 200.668 274.245 203.971 272.874 207.594C271.833 210.341 269.127 212.487 264.83 213.972C254.8 217.439 243.214 220.401 238.698 221.514C238.498 221.562 238.312 221.649 238.151 221.77C237.99 221.891 237.857 222.043 237.763 222.215C237.668 222.386 237.612 222.573 237.597 222.765C237.583 222.957 237.611 223.149 237.68 223.331L247.283 243.666C247.384 243.924 247.42 244.201 247.389 244.474C247.358 244.747 247.261 245.01 247.105 245.242C246.95 245.474 246.739 245.67 246.491 245.813C246.242 245.957 245.962 246.045 245.672 246.07L238.496 246.562C238.435 246.568 238.375 246.571 238.314 246.571C237.947 246.57 237.587 246.47 237.279 246.281C236.971 246.093 236.727 245.824 236.578 245.507V245.507Z" fill="#2F2E41"/>
<path id="Vector_48" d="M246.87 253.368L241.686 253.367L239.219 240.692L246.871 240.692L246.87 253.368Z" fill="#FFB8B8"/>
<path id="Vector_49" d="M248.193 258.105L231.474 258.104V257.905C231.474 257.099 231.642 256.302 231.969 255.558C232.296 254.813 232.776 254.137 233.38 253.568C233.984 252.998 234.702 252.546 235.491 252.238C236.281 251.93 237.127 251.771 237.981 251.771H237.982L248.193 251.772L248.193 258.105Z" fill="#2F2E41"/>
<path id="Vector_50" d="M239.538 246.703L229.201 224.856C228.338 223.014 228.243 220.934 228.934 219.029C229.625 217.124 231.052 215.535 232.931 214.577L255.352 203.245L265.584 202.425L275.021 201.617L275.089 201.725C275.176 201.864 277.206 205.167 275.834 208.79C274.794 211.537 272.087 213.683 267.79 215.168C257.761 218.634 246.174 221.597 241.659 222.71C241.459 222.758 241.272 222.845 241.111 222.966C240.95 223.087 240.818 223.238 240.723 223.411C240.629 223.581 240.572 223.769 240.558 223.961C240.544 224.153 240.572 224.345 240.64 224.527L250.244 244.862C250.344 245.12 250.38 245.396 250.349 245.67C250.318 245.943 250.221 246.206 250.066 246.438C249.91 246.67 249.7 246.865 249.451 247.009C249.203 247.153 248.923 247.24 248.633 247.266L241.457 247.758C241.396 247.764 241.335 247.766 241.275 247.766C240.907 247.766 240.548 247.666 240.24 247.477C239.931 247.288 239.688 247.02 239.538 246.703V246.703Z" fill="#2F2E41"/>
<path id="Vector_51" d="M234.386 179.961C230.042 174.515 226.608 168.475 224.204 162.05C224.064 161.666 224.074 161.248 224.232 160.869C224.389 160.491 224.684 160.178 225.063 159.986L239.927 152.479C240.168 152.357 240.435 152.288 240.708 152.277C240.981 152.267 241.253 152.315 241.503 152.419C241.758 152.523 241.984 152.681 242.164 152.88C242.345 153.079 242.474 153.315 242.544 153.568C244.274 159.76 247.526 165.48 252.037 170.267C252.223 170.462 252.359 170.694 252.435 170.946C252.511 171.198 252.525 171.463 252.476 171.721C252.429 171.974 252.321 172.215 252.161 172.423C252 172.632 251.791 172.803 251.55 172.924L236.686 180.43C236.306 180.621 235.866 180.679 235.445 180.593C235.023 180.507 234.648 180.283 234.386 179.961V179.961Z" fill="#CCCCCC"/>
<path id="Vector_52" d="M235.4 179.243C235.48 179.337 235.593 179.402 235.718 179.426C235.843 179.45 235.973 179.433 236.086 179.376L250.951 171.869C251.023 171.834 251.085 171.783 251.133 171.721C251.181 171.659 251.213 171.588 251.227 171.512C251.242 171.432 251.238 171.35 251.214 171.272C251.19 171.194 251.147 171.122 251.089 171.062C246.445 166.134 243.097 160.245 241.316 153.872C241.296 153.793 241.256 153.72 241.201 153.658C241.145 153.596 241.075 153.547 240.996 153.515C240.921 153.483 240.84 153.469 240.759 153.472C240.677 153.475 240.598 153.496 240.526 153.533L225.662 161.04C225.55 161.097 225.462 161.19 225.414 161.302C225.366 161.414 225.361 161.538 225.4 161.653C227.762 167.962 231.134 173.895 235.4 179.243V179.243Z" fill="white"/>
<path id="Vector_53" d="M283.767 177.959L272.126 182.128L269.284 174.687C268.907 173.699 268.912 172.617 269.299 171.632C269.686 170.648 270.43 169.824 271.4 169.306V169.306C272.38 168.782 273.527 168.606 274.633 168.81C275.74 169.013 276.732 169.583 277.432 170.416L283.767 177.959Z" fill="#6C63FF"/>
<path id="Vector_54" d="M254.158 207.441C253.913 207.278 253.707 207.067 253.555 206.823C253.403 206.579 253.308 206.308 253.276 206.026C251.785 192.908 252.824 182.641 256.451 174.641C257.09 173.261 258.052 172.035 259.266 171.056C260.479 170.077 261.912 169.37 263.458 168.988L272.868 168.541L272.917 168.563C275.04 169.543 276.772 171.142 277.855 173.123C278.938 175.104 279.315 177.361 278.93 179.56C275.904 187.08 273.369 194.909 275.302 201.224C275.383 201.488 275.407 201.765 275.372 202.038C275.337 202.311 275.243 202.574 275.098 202.812C274.956 203.042 274.766 203.242 274.54 203.401C274.313 203.559 274.054 203.672 273.78 203.732L255.856 207.751C255.566 207.816 255.264 207.822 254.971 207.769C254.679 207.715 254.401 207.604 254.158 207.441Z" fill="#FC079A"/>
<path id="Vector_55" d="M269.727 165.228C275.464 165.228 280.115 160.845 280.115 155.437C280.115 150.03 275.464 145.647 269.727 145.647C263.99 145.647 259.34 150.03 259.34 155.437C259.34 160.845 263.99 165.228 269.727 165.228Z" fill="#FFB8B8"/>
<path id="Vector_56" d="M240.903 163.192L232.807 166.56C232.499 166.688 232.15 166.695 231.837 166.581C231.523 166.466 231.27 166.239 231.134 165.949L230.934 165.521C230.798 165.231 230.791 164.902 230.912 164.607C231.034 164.311 231.275 164.073 231.582 163.944L239.678 160.576C239.986 160.449 240.335 160.441 240.649 160.556C240.962 160.67 241.215 160.897 241.351 161.187L241.551 161.615C241.687 161.905 241.695 162.234 241.573 162.53C241.452 162.825 241.211 163.064 240.903 163.192V163.192Z" fill="#CCCCCC"/>
<path id="Vector_57" d="M243.864 168.374L235.768 171.742C235.46 171.87 235.111 171.877 234.797 171.763C234.484 171.648 234.231 171.421 234.095 171.131L233.894 170.704C233.759 170.413 233.751 170.084 233.873 169.789C233.994 169.493 234.235 169.255 234.543 169.127L242.639 165.758C242.946 165.631 243.296 165.623 243.609 165.738C243.923 165.852 244.176 166.08 244.312 166.37L244.512 166.797C244.647 167.087 244.655 167.416 244.534 167.712C244.412 168.008 244.171 168.246 243.864 168.374V168.374Z" fill="#CCCCCC"/>
<path id="Vector_58" d="M250.107 188.615L232.058 175.195C231.914 175.243 231.768 175.283 231.62 175.317C230.983 175.457 230.322 175.47 229.679 175.354C229.037 175.237 228.427 174.995 227.891 174.643C227.35 174.29 226.896 173.832 226.559 173.3C226.221 172.769 226.008 172.175 225.934 171.56C225.813 170.576 226.048 169.582 226.602 168.74C227.155 167.898 227.994 167.257 228.983 166.921C229.6 166.712 230.257 166.629 230.91 166.676C231.564 166.723 232.2 166.9 232.776 167.195C233.352 167.49 233.855 167.896 234.253 168.387C234.651 168.878 234.934 169.443 235.084 170.045C235.131 170.235 235.163 170.429 235.181 170.624L253.148 180.393L257.619 177.967L262.572 184.078L255.63 188.742C254.817 189.283 253.841 189.563 252.846 189.541C251.851 189.518 250.891 189.193 250.107 188.615V188.615Z" fill="#FFB8B8"/>
<path id="Vector_59" d="M264.775 185.982L254.477 179.381L259.316 172.921C259.959 172.063 260.903 171.447 261.981 171.181C263.059 170.916 264.201 171.018 265.207 171.47V171.47C266.225 171.927 267.035 172.712 267.492 173.683C267.95 174.654 268.023 175.747 267.7 176.765L264.775 185.982Z" fill="#FC079A"/>
<path id="Vector_60" d="M265.919 153.979C263.249 155.701 259.743 157.472 257.016 155.638C255.226 154.433 254.662 152.203 255.388 150.246C256.694 146.727 260.281 145.178 263.711 143.99C268.171 142.446 273.027 141.218 277.631 142.324C282.235 143.429 286.303 147.631 285.472 152.039C284.804 155.585 281.256 158.535 281.759 162.104C282.266 165.697 286.553 167.588 290.337 168.23C294.121 168.872 298.356 169.078 301.076 171.64C304.545 174.908 303.679 180.75 300.414 184.201C297.15 187.651 292.223 189.215 287.45 190.279C281.125 191.688 274.284 192.428 268.277 190.09C262.27 187.752 257.595 181.458 259.336 175.556C260.071 173.063 261.802 170.956 263.476 168.905C265.149 166.854 266.843 164.709 267.482 162.193C268.014 160.096 267.62 157.661 266.145 156.088C265.876 155.813 265.707 155.464 265.662 155.093C265.617 154.721 265.698 154.346 265.893 154.021L265.919 153.979Z" fill="#2F2E41"/>
<path id="Vector_61" d="M70.8097 201.548C68.133 202.435 65.259 202.657 62.4648 202.193C59.6705 201.73 57.0501 200.595 54.856 198.9C49.2682 194.479 47.5162 187.197 46.0907 180.453C44.6852 173.805 43.2798 167.156 41.8743 160.508L50.7017 166.237C57.0499 170.357 63.541 174.608 67.9365 180.576C72.3319 186.543 74.2505 194.689 70.7189 201.146" fill="#67B62A"/>
<path id="Vector_62" d="M70.0551 225.696C70.9486 219.563 71.8673 213.35 71.2406 207.15C70.684 201.645 68.9018 196.267 65.2734 191.858C63.3475 189.522 61.004 187.52 58.3483 185.943C57.6558 185.531 57.0184 186.565 57.7079 186.976C62.303 189.713 65.8572 193.755 67.8579 198.518C70.0677 203.816 70.4226 209.591 70.0418 215.218C69.8115 218.621 69.3235 222.002 68.8316 225.379C68.7929 225.531 68.8171 225.692 68.8993 225.829C68.9816 225.965 69.1157 226.067 69.2747 226.114C69.437 226.155 69.6099 226.135 69.7559 226.056C69.902 225.978 70.0095 225.849 70.0551 225.696H70.0551Z" fill="#785F5F"/>
<path id="Vector_63" d="M61.4496 214.843C60.3016 216.487 58.7236 217.825 56.8676 218.728C55.0116 219.631 52.9402 220.068 50.853 219.997C45.4888 219.757 41.0168 216.229 36.9912 212.879L25.0841 202.97L32.9646 202.614C38.6318 202.359 44.4452 202.12 49.843 203.768C55.2408 205.415 60.219 209.379 61.206 214.645" fill="#75BC5C"/>
<path id="Vector_64" d="M72.5801 229.223C68.2798 222.051 63.2918 214.08 54.3791 211.533C51.9009 210.827 49.3024 210.574 46.7235 210.788C45.9107 210.854 46.1136 212.035 46.925 211.969C51.2478 211.63 55.5623 212.706 59.1421 215.015C62.5869 217.225 65.269 220.298 67.5392 223.556C68.9297 225.552 70.1753 227.632 71.421 229.71C71.8192 230.374 72.9829 229.894 72.5801 229.223V229.223Z" fill="#9F9494"/>
<path id="Vector_65" d="M79.4704 236.771C79.3256 235.189 78.7228 233.674 77.7277 232.393C76.7327 231.111 75.3836 230.111 73.8273 229.502V225.356H66.4492V229.632C64.9695 230.271 63.6961 231.269 62.7587 232.523C61.8214 233.777 61.2536 235.243 61.1133 236.771L59.3784 255.779H81.2054L79.4704 236.771Z" fill="#FC079A"/>
</g>
</svg>
