<svg width="370" height="334" viewBox="0 0 370 334" fill="none" xmlns="http://www.w3.org/2000/svg">
<g id="Frame 1">
<path id="Vector" d="M370 186.763C370 254.189 308.233 311.026 223.95 328.475C210.262 331.301 196.356 333.046 182.372 333.692C181.692 333.725 181.011 333.757 180.326 333.781C176.687 333.925 173.02 333.998 169.326 334C162.902 334 156.555 333.781 150.283 333.342C146.804 333.104 143.354 332.801 139.934 332.432C106.665 328.848 76.0484 319.276 50.189 305.253C46.9579 303.503 43.8028 301.683 40.7238 299.793C35.0858 296.346 29.6425 292.613 24.4171 288.611C-10.125 262.169 18.6739 205.729 36.6762 170.196C85.2657 74.2941 58.4979 39.5266 169.326 39.5266C280.153 39.5266 370 105.445 370 186.763Z" fill="#F0F0F0"/>
<g id="img">
<path id="Vector_2" d="M323.185 60.1271C335.521 78.1203 332.791 101.429 332.791 101.429C332.791 101.429 310.062 95.5654 297.726 77.5722C285.39 59.579 288.12 36.27 288.12 36.27C288.12 36.27 310.85 42.1338 323.185 60.1271Z" fill="#379CAA"/>
<path id="Vector_3" d="M314.31 63.5627C315.753 85.3288 332.322 101.953 332.322 101.953C332.322 101.953 346.551 83.2874 345.107 61.5214C343.664 39.7553 327.095 23.1311 327.095 23.1311C327.095 23.1311 312.866 41.7966 314.31 63.5627Z" fill="#1FD6EF"/>
<path id="Vector_4" d="M172.682 0.448703L340.161 84.6288C341.554 85.3287 342.709 86.4238 343.481 87.777C344.254 89.1302 344.61 90.6813 344.505 92.236L334.775 236.331C334.731 236.977 334.528 237.602 334.184 238.151C333.84 238.7 333.365 239.155 332.802 239.475C332.239 239.796 331.605 239.972 330.957 239.988C330.31 240.004 329.668 239.86 329.09 239.568L157.792 152.169L166.586 3.96137C166.627 3.26518 166.841 2.59015 167.208 1.99691C167.575 1.40367 168.083 0.910792 168.687 0.562543C169.292 0.214293 169.973 0.0215793 170.67 0.0017096C171.368 -0.0181602 172.059 0.135436 172.682 0.448703V0.448703Z" fill="#D0CDE1"/>
<path id="Vector_5" d="M174.61 3.38507L337.975 85.4974C339.333 86.1802 340.46 87.2484 341.214 88.5684C341.968 89.8883 342.315 91.4013 342.213 92.9178L332.721 233.473C332.679 234.104 332.48 234.714 332.145 235.249C331.809 235.784 331.346 236.228 330.796 236.541C330.247 236.853 329.629 237.025 328.997 237.041C328.365 237.057 327.74 236.916 327.176 236.631L160.085 151.378L168.663 6.81146C168.704 6.13237 168.912 5.47392 169.27 4.89525C169.628 4.31658 170.123 3.83581 170.713 3.49611C171.303 3.15642 171.967 2.96844 172.647 2.94906C173.328 2.92967 174.002 3.0795 174.61 3.38507V3.38507Z" fill="#3F3D56"/>
<path id="Vector_6" d="M181.769 14.2914L329.855 88.7238C331.086 89.3427 332.108 90.311 332.791 91.5075C333.474 92.704 333.789 94.0755 333.696 95.4501L325.093 222.86C325.054 223.431 324.874 223.984 324.57 224.469C324.266 224.954 323.846 225.357 323.348 225.64C322.85 225.924 322.29 226.079 321.717 226.094C321.144 226.108 320.577 225.98 320.066 225.722L168.603 148.443L176.379 17.3973C176.415 16.7818 176.604 16.1849 176.929 15.6603C177.253 15.1358 177.702 14.7 178.237 14.3921C178.771 14.0841 179.374 13.9137 179.99 13.8962C180.607 13.8786 181.218 14.0144 181.769 14.2914V14.2914Z" fill="white"/>
<path id="Vector_7" d="M28.9673 223.072L196.66 307.502C198.221 308.287 199.944 308.694 201.69 308.692C203.437 308.69 205.159 308.278 206.718 307.489L330.772 244.532C332.227 243.077 332.024 240.922 331.558 239.304C331.333 238.521 331.025 237.764 330.641 237.044L313.736 228.155L171.604 157.258L163.112 152.752C160.864 151.561 158.361 150.934 155.817 150.924C153.273 150.914 150.765 151.521 148.507 152.693L28.9148 214.799C28.1539 215.192 27.5167 215.788 27.0737 216.521C26.6306 217.254 26.399 218.095 26.4045 218.951C26.4099 219.808 26.6522 220.646 27.1045 221.373C27.5568 222.1 28.2015 222.688 28.9673 223.072V223.072Z" fill="#D0CDE1"/>
<path id="Vector_8" opacity="0.1" d="M28.9673 223.072L196.66 307.502C198.221 308.287 199.944 308.694 201.69 308.692C203.437 308.69 205.159 308.278 206.718 307.489L330.772 244.532C332.227 243.077 332.024 240.922 331.559 239.304L207.875 303.575C206.365 304.36 204.692 304.776 202.991 304.791C201.29 304.805 199.61 304.418 198.088 303.659L26.4643 218.179C26.303 219.155 26.459 220.157 26.9095 221.038C27.3601 221.918 28.0813 222.631 28.9673 223.072V223.072Z" fill="black"/>
<path id="Vector_9" opacity="0.1" d="M188.134 248.369L133.827 220.933C132.734 220.38 131.523 220.099 130.298 220.113C129.073 220.127 127.87 220.436 126.789 221.013L95.2852 237.839C94.9212 238.034 94.6176 238.324 94.4075 238.68C94.1974 239.035 94.0889 239.441 94.0937 239.853C94.0986 240.266 94.2167 240.669 94.4351 241.019C94.6536 241.369 94.964 241.653 95.3325 241.838L150.704 269.754C151.624 270.217 152.643 270.447 153.673 270.424C154.702 270.4 155.71 270.123 156.607 269.618L188.237 251.803C188.545 251.629 188.8 251.375 188.974 251.067C189.148 250.759 189.235 250.409 189.224 250.055C189.213 249.701 189.106 249.357 188.914 249.06C188.722 248.763 188.453 248.524 188.134 248.369V248.369Z" fill="black"/>
<path id="Vector_10" opacity="0.1" d="M316.037 243.781L257.597 274.819C256.925 275.176 256.176 275.366 255.415 275.374C254.653 275.382 253.901 275.206 253.222 274.863L88.1041 191.384C87.6389 191.149 87.2483 190.789 86.9762 190.344C86.7041 189.9 86.5611 189.388 86.5634 188.867C86.5656 188.346 86.713 187.835 86.9889 187.393C87.2648 186.951 87.6585 186.594 88.1257 186.363L145.194 158.125C146.054 157.699 147.001 157.479 147.961 157.483C148.92 157.486 149.866 157.713 150.723 158.144L316.011 241.402C316.231 241.513 316.415 241.681 316.545 241.89C316.675 242.098 316.745 242.338 316.748 242.584C316.751 242.829 316.686 243.071 316.56 243.282C316.435 243.493 316.254 243.666 316.037 243.781Z" fill="black"/>
<path id="Vector_11" d="M64.4141 144.71C64.4141 144.71 51.312 139.002 45.1579 145.032C39.0039 151.061 61.6349 149.076 64.4141 144.71Z" fill="#3F3D56"/>
<path id="Vector_12" d="M41.7902 117.641C46.1932 110.203 54.9043 109.857 54.9043 109.857C54.9043 109.857 63.3928 108.771 68.838 120.099C73.9135 130.658 80.9183 140.852 69.9658 143.324L67.9874 137.168L66.7622 143.782C65.2028 143.895 63.6384 143.921 62.0761 143.863C50.3468 143.484 39.1765 143.973 39.5362 139.765C40.0143 134.172 37.5535 124.798 41.7902 117.641Z" fill="#E33051"/>
<path id="Vector_13" d="M35.6291 252.477C35.6291 252.477 41.1876 262.797 44.7609 262.797C48.3342 262.797 47.9372 269.545 47.1431 271.132C46.349 272.72 44.3639 276.293 47.5401 281.453C48.6496 283.255 48.4511 285.3 47.7231 287.197C45.6832 292.514 37.748 290.903 38.0012 285.214C38.004 285.152 38.0073 285.089 38.0113 285.025C38.4083 278.674 35.2321 268.751 32.0558 266.369C28.8795 263.988 26.1003 257.637 26.1003 257.637L35.6291 252.477Z" fill="#FFB8B8"/>
<path id="Vector_14" d="M73.7445 250.095C73.7445 250.095 68.186 260.415 64.6126 260.415C61.0393 260.415 61.4364 267.163 62.2304 268.751C63.0245 270.339 65.0097 273.911 61.8334 279.071C60.7239 280.873 60.9224 282.918 61.6505 284.816C63.6904 290.133 71.6255 288.522 71.3724 282.833C71.3696 282.77 71.3662 282.707 71.3622 282.643C70.9652 276.293 74.1415 266.369 77.3177 263.988C80.494 261.606 83.2733 255.255 83.2733 255.255L73.7445 250.095Z" fill="#FFB8B8"/>
<path id="Vector_15" d="M69.377 199.288L71.7592 204.448C71.7592 204.448 106.698 215.959 103.522 229.455C100.346 242.95 84.8614 263.988 82.4792 263.194C80.097 262.4 67.3919 260.018 66.9948 253.271C66.5978 246.523 76.1266 234.615 76.1266 234.615L63.0245 222.707L43.9588 222.31L27.6884 234.615C27.6884 234.615 44.7609 249.698 37.2172 255.652C29.6736 261.606 18.5566 265.575 16.9685 263.194C15.3803 260.812 -2.48623 225.485 0.293014 222.31C3.07225 219.135 31.2617 207.227 31.2617 207.227L38.8054 196.509L68.1859 194.922L69.377 199.288Z" fill="#166E7A"/>
<path id="Vector_16" d="M62.2305 133.794C62.2305 133.794 60.2453 146.893 64.2156 148.481C68.186 150.068 56.2749 156.816 56.2749 156.816H49.5253L45.158 147.687C45.158 147.687 49.1283 140.542 46.7461 133.794C44.3639 127.046 62.2305 133.794 62.2305 133.794Z" fill="#FFB8B8"/>
<path id="Vector_17" opacity="0.1" d="M62.2305 133.794C62.2305 133.794 60.2453 146.893 64.2156 148.481C68.186 150.068 56.2749 156.816 56.2749 156.816H49.5253L45.158 147.687C45.158 147.687 49.1283 140.542 46.7461 133.794C44.3639 127.046 62.2305 133.794 62.2305 133.794Z" fill="black"/>
<path id="Vector_18" d="M65.0097 144.908C65.0097 144.908 60.6423 149.672 59.8482 150.465C59.0542 151.259 55.4809 155.626 47.9372 149.275C40.3935 142.924 39.5995 150.465 39.5995 150.465V198.097C39.5995 198.097 45.952 195.319 51.1135 198.097C56.2749 200.876 66.9949 197.303 66.9949 197.303L68.98 148.084L65.0097 144.908Z" fill="#D0CDE1"/>
<path id="Vector_19" d="M62.0933 144.908C62.0933 144.908 65.8037 143.321 68.98 144.908C72.1563 146.496 83.2733 154.435 82.4792 158.007C81.6851 161.58 71.3622 186.586 78.5088 198.494C85.6555 210.402 86.8466 213.577 86.8466 213.577L69.3771 204.448C69.3771 204.448 55.8779 196.113 57.069 190.952C58.2601 185.792 62.0933 144.908 62.0933 144.908Z" fill="#1FD6EF"/>
<path id="Vector_20" d="M46.3443 144.908C46.3443 144.908 38.0113 145.702 37.6143 146.496C37.2172 147.29 25.1077 150.664 25.9017 154.236C26.6958 157.809 37.6143 189.762 32.8498 195.716C28.0854 201.67 20.1447 210.005 22.924 210.799C25.7032 211.593 30.4677 209.608 35.2321 210.799C39.9965 211.99 51.1134 202.066 49.9223 191.349C48.7312 180.632 49.913 147.687 46.3443 144.908Z" fill="#1FD6EF"/>
<path id="Vector_21" d="M66.2007 220.722V224.692C66.2007 224.692 68.1859 233.821 61.8333 233.424C55.4808 233.027 59.4511 222.31 59.4511 222.31L59.8482 218.738L66.2007 220.722Z" fill="#FFB8B8"/>
<path id="Vector_22" d="M48.3342 221.119C48.3342 221.119 52.7016 230.249 48.3342 231.042C43.9668 231.836 40.7905 225.882 40.7905 224.295C40.7905 222.707 48.3342 221.119 48.3342 221.119Z" fill="#FFB8B8"/>
<path id="Vector_23" d="M42.5772 130.023C43.0158 130.023 43.3713 129.313 43.3713 128.436C43.3713 127.559 43.0158 126.848 42.5772 126.848C42.1387 126.848 41.7831 127.559 41.7831 128.436C41.7831 129.313 42.1387 130.023 42.5772 130.023Z" fill="#FFB8B8"/>
<path id="Vector_24" d="M66.0023 130.023C66.4408 130.023 66.7963 129.313 66.7963 128.436C66.7963 127.559 66.4408 126.848 66.0023 126.848C65.5637 126.848 65.2082 127.559 65.2082 128.436C65.2082 129.313 65.5637 130.023 66.0023 130.023Z" fill="#FFB8B8"/>
<path id="Vector_25" d="M35.6291 150.068C35.6291 150.068 25.7033 150.068 26.1003 154.038C26.4973 158.007 39.5995 226.279 39.5995 226.279C39.5995 226.279 45.1579 221.119 49.9224 222.31L35.6291 150.068Z" fill="#1FD6EF"/>
<path id="Vector_26" d="M74.1414 151.259C74.1414 151.259 84.0673 153.244 84.0673 159.198C84.0673 165.152 69.7741 222.31 67.7889 222.31C65.8037 222.31 58.2601 221.119 58.2601 219.134C58.2601 217.15 74.1414 151.259 74.1414 151.259Z" fill="#1FD6EF"/>
<path id="Vector_27" opacity="0.2" d="M71.9578 162.969L63.0245 197.895C63.0245 197.895 67.1933 167.335 71.9578 162.969Z" fill="black"/>
<path id="Vector_28" opacity="0.2" d="M37.2104 158.061L46.2453 203.726C46.2453 203.726 43.3577 160.695 37.2104 158.061Z" fill="black"/>
<path id="Vector_29" d="M54.2897 140.145C60.6487 140.145 65.8037 134.992 65.8037 128.634C65.8037 122.277 60.6487 117.123 54.2897 117.123C47.9307 117.123 42.7757 122.277 42.7757 128.634C42.7757 134.992 47.9307 140.145 54.2897 140.145Z" fill="#FFB8B8"/>
<path id="Vector_30" d="M43.7368 116.924L52.3431 112.417L64.2276 114.261L66.6864 125.118L60.5657 124.883L58.8557 120.894V124.817L56.0313 124.709L54.3919 118.358L53.3675 125.118L43.3268 124.914L43.7368 116.924Z" fill="#E33051"/>
<path id="Vector_31" d="M172.79 50.0961L168.045 61.3803L208.102 82.4012L221.597 42.9187" fill="#F2F2F2"/>
<path id="Vector_32" d="M207.179 75.4781L224.875 33.8504L184.203 13.8417L167.121 54.4572L207.179 75.4781Z" fill="#1FD6EF"/>
<path id="Vector_33" d="M183.241 29.7602L182.943 30.3436L213.735 46.073L214.033 45.4896L183.241 29.7602Z" fill="white"/>
<path id="Vector_34" d="M180.933 35.2988L180.635 35.8822L211.427 51.6116L211.725 51.0281L180.933 35.2988Z" fill="white"/>
</g>
<g id="logo-animation">
<path id="Vector_35" d="M228.756 117.177C224.921 125.931 224.556 133.162 233.93 137.95C236.823 146.582 246.538 152.643 255.857 149.827C263.775 154.617 272.661 152.463 277.996 146.764C284.068 140.276 285.142 129.672 278.182 121.991C280.519 109.219 270.086 100.991 262.569 99.2576C254.741 97.4721 249.115 99.9537 243.438 105.71C242.348 105.508 239.755 104.992 236.557 105.567C237.908 106.354 237.691 107.656 236.951 108.925L235.527 111.368C234.78 112.649 233.161 113.117 231.913 112.39L229.579 111.031C228.343 110.31 227.745 109 228.492 107.718L228.953 106.928L223.546 103.777C223.107 103.522 221.998 103.565 221.467 104.476L218.647 109.313C218.2 110.08 218.436 111.083 219.175 111.514L224.825 114.806L228.756 117.177ZM250.546 131.059C246.078 135.883 247.805 143.711 250.682 147.697C235.937 144.528 234.596 127.542 242.979 122.8C237.635 123.152 234.352 131.01 233.358 133.911C230.25 131.168 228.531 128.11 230.42 121.345C232.438 114.845 239.449 108.843 244.821 109.053C249.459 109.221 257.75 117.081 257.786 125.011C259.508 118.314 254.345 110.998 249.128 107.204C252.545 98.337 264.428 101.951 269.72 106.093C277.136 111.906 277.1 130.537 264.807 134.235C269.989 134.639 276.206 128.826 277.638 126.051L279.907 132.503C279.734 135.931 278.658 145.383 273.982 146.226C270.197 150.277 263.542 149.455 258.487 147.746C254.339 146.339 247.774 138.123 250.546 131.059ZM229.153 101.911L224.555 99.2319C223.527 98.6328 223.193 97.2672 223.814 96.2014L226.579 91.4593C227.2 90.3935 228.553 90.0107 229.581 90.6098L234.18 93.289C235.208 93.8881 235.542 95.2537 234.92 96.3195L232.156 101.062C231.535 102.127 230.182 102.51 229.153 101.911ZM218.324 89.1846C217.677 88.8076 217.471 87.9658 217.862 87.2952L219.803 83.9661C220.194 83.2955 221.028 83.0596 221.675 83.4365L224.875 85.3012C225.511 85.6714 225.728 86.5199 225.337 87.1905L223.396 90.5196C223.005 91.1902 222.171 91.4262 221.524 91.0492L218.324 89.1846ZM238.333 96.7839L239.827 94.2213C240.183 93.6105 240.962 93.3903 241.551 93.7336L244.023 95.1742C244.612 95.5175 244.805 96.3031 244.449 96.9139L242.955 99.4765C242.599 100.087 241.82 100.307 241.231 99.9642L238.758 98.5236C238.169 98.1803 237.977 97.3947 238.333 96.7839ZM218.915 100.358L217.17 103.351C216.73 104.106 215.778 104.385 215.05 103.961L212.139 102.265C211.411 101.841 211.184 100.875 211.624 100.12L213.369 97.1264C213.809 96.3719 214.762 96.0926 215.489 96.5166L218.389 98.2062C219.129 98.6371 219.355 99.6031 218.915 100.358Z" fill="#3F8FF7"/>
</g>
</g>
</svg>
