<svg width="371" height="335" viewBox="0 0 371 335" fill="none" xmlns="http://www.w3.org/2000/svg">
<g id="Frame 2">
<path id="Vector" d="M18.0937 152.991C56.7739 44.637 89.6599 33.3968 168.341 27.3303C181.118 26.3526 193.958 26.523 206.732 27.8397C207.354 27.9025 207.975 27.9653 208.6 28.0384C211.921 28.4053 215.259 28.85 218.613 29.3725C224.443 30.2838 230.177 31.4109 235.815 32.7538C238.944 33.4933 272.562 43.232 275.621 44.0982C310.761 60.9976 291.755 49.8835 313.478 68.0382C316.193 70.3043 328.519 80.5635 331.078 82.9526C335.766 87.3131 340.241 91.9409 344.485 96.8162C372.541 129.03 351.851 212.649 331.078 246.799C275.011 338.968 246.456 298.231 150.645 300.589C10.9998 296.269 -5.52806 267.859 18.0937 152.991Z" fill="#F0F0F0"/>
<path id="Vector_2" d="M148.339 263.971C146.797 264.587 145.142 264.742 143.533 264.419C141.924 264.097 140.415 263.308 139.151 262.13C135.933 259.057 134.925 253.994 134.104 249.307L131.676 235.442L136.759 239.424C140.415 242.288 144.153 245.244 146.684 249.392C149.215 253.54 150.32 259.203 148.287 263.691" fill="#517640"/>
<path id="Vector_3" d="M147.904 280.757C148.419 276.493 148.948 272.175 148.587 267.865C148.266 264.038 147.24 260.3 145.151 257.234C144.042 255.611 142.692 254.219 141.163 253.123C140.764 252.837 140.397 253.556 140.794 253.841C143.44 255.743 145.487 258.553 146.639 261.865C147.912 265.547 148.116 269.561 147.897 273.473C147.764 275.839 147.483 278.189 147.2 280.536C147.177 280.642 147.191 280.754 147.239 280.849C147.286 280.944 147.363 281.015 147.455 281.047C147.548 281.076 147.648 281.062 147.732 281.007C147.816 280.953 147.878 280.863 147.904 280.757V280.757Z" fill="#8F7A7A"/>
<path id="Vector_4" d="M142.949 273.212C142.287 274.355 141.379 275.285 140.31 275.913C139.241 276.541 138.048 276.844 136.846 276.795C133.757 276.628 131.182 274.176 128.863 271.847L122.006 264.959L126.545 264.712C129.808 264.534 133.156 264.368 136.265 265.513C139.373 266.658 142.24 269.414 142.808 273.075" fill="#48A81B"/>
<path id="Vector_5" d="M149.358 283.208C146.882 278.223 144.009 272.682 138.877 270.911C137.45 270.421 135.953 270.245 134.468 270.393C134 270.439 134.117 271.26 134.584 271.214C137.074 270.979 139.558 271.727 141.62 273.332C143.604 274.868 145.148 277.004 146.455 279.269C147.256 280.656 147.974 282.102 148.691 283.547C148.92 284.008 149.59 283.675 149.358 283.208V283.208Z" fill="#8F7A7A"/>
<path id="Vector_6" d="M215.735 183.339L161.744 234.249C161.064 234.888 160.19 235.194 159.312 235.101C158.435 235.007 157.625 234.522 157.062 233.75L134.302 202.508C133.741 201.735 133.471 200.74 133.553 199.742C133.636 198.743 134.063 197.823 134.741 197.182L188.732 146.272C189.411 145.633 190.286 145.327 191.163 145.42C192.041 145.514 192.85 145.999 193.414 146.771L216.173 178.013C216.735 178.786 217.004 179.781 216.922 180.779C216.84 181.778 216.413 182.698 215.735 183.339Z" fill="#CCCCCC"/>
<path id="Vector_7" d="M213.572 181.806L160.821 231.546C160.471 231.875 160.021 232.033 159.569 231.984C159.117 231.936 158.7 231.686 158.41 231.289L136.678 201.459C136.389 201.06 136.25 200.548 136.293 200.034C136.335 199.519 136.555 199.045 136.904 198.715L189.654 148.975C190.004 148.646 190.455 148.488 190.907 148.536C191.359 148.585 191.776 148.835 192.066 149.232L213.797 179.062C214.087 179.461 214.225 179.973 214.183 180.487C214.141 181.002 213.921 181.476 213.572 181.806Z" fill="white"/>
<path id="Vector_8" d="M216.003 192.218L205.154 191.063L212.919 184.11L217.102 189.852C217.265 190.071 217.366 190.341 217.392 190.627C217.418 190.912 217.368 191.2 217.247 191.453C217.169 191.624 217.061 191.776 216.93 191.9C216.802 192.02 216.654 192.11 216.495 192.165C216.336 192.219 216.168 192.238 216.003 192.218V192.218Z" fill="#CCCCCC"/>
<path id="Vector_9" d="M194.216 170.109L167.53 195.271C167.367 195.425 167.179 195.541 166.977 195.612C166.775 195.683 166.562 195.708 166.351 195.685C166.141 195.663 165.936 195.593 165.749 195.481C165.561 195.368 165.396 195.215 165.261 195.03C165.125 194.844 165.024 194.63 164.961 194.4C164.899 194.17 164.877 193.928 164.897 193.688C164.916 193.449 164.977 193.216 165.076 193.003C165.175 192.79 165.31 192.601 165.473 192.447L192.158 167.285C192.321 167.131 192.509 167.016 192.712 166.945C192.914 166.874 193.127 166.849 193.337 166.871C193.548 166.893 193.753 166.963 193.94 167.075C194.127 167.188 194.293 167.341 194.428 167.527C194.563 167.712 194.665 167.926 194.727 168.156C194.79 168.386 194.812 168.628 194.792 168.868C194.772 169.108 194.711 169.341 194.612 169.554C194.514 169.767 194.379 169.955 194.216 170.109V170.109Z" fill="#CCCCCC"/>
<path id="Vector_10" d="M181.156 172.3L163.158 189.27C162.829 189.58 162.405 189.729 161.98 189.684C161.554 189.639 161.161 189.403 160.889 189.028C160.616 188.654 160.485 188.171 160.525 187.687C160.565 187.203 160.772 186.756 161.101 186.446L179.098 169.476C179.427 169.166 179.851 169.017 180.277 169.062C180.703 169.107 181.095 169.343 181.368 169.718C181.641 170.092 181.772 170.575 181.732 171.059C181.692 171.543 181.485 171.99 181.156 172.3Z" fill="#CCCCCC"/>
<path id="Vector_11" d="M153.269 207.006C156.051 207.006 158.307 204.44 158.307 201.275C158.307 198.109 156.051 195.543 153.269 195.543C150.487 195.543 148.231 198.109 148.231 201.275C148.231 204.44 150.487 207.006 153.269 207.006Z" fill="#14F50F"/>
<path id="Vector_12" d="M193.342 189.786C194.232 189.786 194.954 188.965 194.954 187.952C194.954 186.939 194.232 186.118 193.342 186.118C192.451 186.118 191.73 186.939 191.73 187.952C191.73 188.965 192.451 189.786 193.342 189.786Z" fill="#E6E6E6"/>
<path id="Vector_13" d="M197.686 185.69C198.576 185.69 199.298 184.869 199.298 183.856C199.298 182.843 198.576 182.022 197.686 182.022C196.796 182.022 196.074 182.843 196.074 183.856C196.074 184.869 196.796 185.69 197.686 185.69Z" fill="#E6E6E6"/>
<path id="Vector_14" d="M202.03 181.594C202.92 181.594 203.642 180.773 203.642 179.76C203.642 178.747 202.92 177.926 202.03 177.926C201.14 177.926 200.418 178.747 200.418 179.76C200.418 180.773 201.14 181.594 202.03 181.594Z" fill="#E6E6E6"/>
<path id="Vector_15" d="M176.336 280.014L180.037 280.014L181.797 263.773L176.335 263.774L176.336 280.014Z" fill="#FFB8B8"/>
<path id="Vector_16" d="M175.392 278.64L182.68 278.639H182.681C183.291 278.639 183.895 278.776 184.458 279.041C185.022 279.307 185.534 279.696 185.965 280.187C186.396 280.678 186.738 281.26 186.972 281.901C187.205 282.542 187.325 283.23 187.325 283.924V284.095L175.392 284.096L175.392 278.64Z" fill="#F80BB5"/>
<path id="Vector_17" d="M163.053 280.014L166.754 280.014L168.515 263.773L163.053 263.774L163.053 280.014Z" fill="#FFB8B8"/>
<path id="Vector_18" d="M162.109 278.64L169.398 278.639H169.398C170.008 278.639 170.612 278.776 171.176 279.041C171.739 279.307 172.251 279.696 172.683 280.187C173.114 280.678 173.456 281.26 173.689 281.901C173.923 282.542 174.043 283.23 174.043 283.924V284.095L162.11 284.096L162.109 278.64Z" fill="#F80BB5"/>
<path id="Vector_19" d="M166.767 275.045H166.767L163.619 275.044C163.267 275.045 162.929 274.891 162.675 274.612C162.422 274.334 162.274 273.955 162.263 273.554L162.163 270.422C161.368 245.371 160.545 219.467 165.64 207.825L165.68 207.733L182.549 207.039L185.936 242.382C186.08 243.89 186.027 245.414 185.779 246.903L181.302 273.743C181.241 274.107 181.068 274.434 180.813 274.664C180.558 274.895 180.239 275.014 179.914 274.999L176.379 274.869C176.194 274.86 176.012 274.809 175.845 274.718C175.678 274.627 175.529 274.498 175.407 274.339C175.286 274.18 175.194 273.994 175.138 273.793C175.081 273.592 175.062 273.381 175.08 273.171L177.857 248.347C177.952 247.276 177.866 246.194 177.605 245.159L174.152 231.423C174.123 231.31 174.061 231.211 173.976 231.143C173.891 231.075 173.788 231.043 173.684 231.051C173.581 231.059 173.483 231.108 173.407 231.188C173.331 231.269 173.282 231.377 173.268 231.494L168.113 273.712C168.066 274.081 167.905 274.419 167.658 274.664C167.411 274.908 167.095 275.044 166.767 275.045V275.045Z" fill="#2F2E41"/>
<path id="Vector_20" d="M168.785 171.703C172.879 171.703 176.199 167.926 176.199 163.268C176.199 158.609 172.879 154.832 168.785 154.832C164.69 154.832 161.37 158.609 161.37 163.268C161.37 167.926 164.69 171.703 168.785 171.703Z" fill="#FFB8B8"/>
<path id="Vector_21" d="M181.758 209.648H166.416C166.221 209.648 166.028 209.6 165.851 209.508C165.674 209.415 165.516 209.281 165.388 209.113C165.261 208.945 165.167 208.748 165.112 208.535C165.057 208.322 165.044 208.098 165.072 207.879L165.83 201.973L161.379 188.045C160.919 186.607 160.749 185.071 160.879 183.548C161.01 182.025 161.438 180.555 162.133 179.245C162.828 177.936 163.772 176.82 164.896 175.979C166.019 175.138 167.294 174.595 168.627 174.388C170.525 174.086 172.458 174.485 174.143 175.524C175.828 176.563 177.177 178.189 177.991 180.163L178.969 182.529L183.094 207.82C183.13 208.043 183.123 208.273 183.073 208.492C183.022 208.712 182.93 208.916 182.803 209.09C182.675 209.265 182.516 209.405 182.335 209.501C182.155 209.598 181.958 209.648 181.758 209.648Z" fill="#14F50F"/>
<path id="Vector_22" d="M149.371 224.462C149.833 224.34 150.266 224.104 150.639 223.772C151.012 223.439 151.316 223.017 151.53 222.536C151.745 222.055 151.864 221.526 151.879 220.987C151.894 220.448 151.805 219.911 151.618 219.416L163.573 188.687L156.735 186.728L147.134 217.549C146.422 217.961 145.869 218.655 145.577 219.501C145.286 220.346 145.277 221.284 145.553 222.136C145.829 222.988 146.37 223.696 147.074 224.124C147.777 224.553 148.595 224.673 149.371 224.462H149.371Z" fill="#FFB8B8"/>
<path id="Vector_23" d="M161.955 194.183L155.304 190.641C155.114 190.54 154.947 190.394 154.811 190.213C154.676 190.031 154.577 189.819 154.52 189.59C154.464 189.361 154.451 189.121 154.484 188.886C154.516 188.652 154.592 188.427 154.708 188.229L158.75 181.284C159.209 180.186 160.032 179.34 161.038 178.931C162.045 178.522 163.153 178.584 164.119 179.102C165.086 179.621 165.832 180.554 166.195 181.698C166.558 182.842 166.507 184.102 166.055 185.204L163.965 193.159C163.905 193.387 163.802 193.597 163.664 193.776C163.527 193.954 163.357 194.097 163.166 194.194C162.975 194.291 162.768 194.341 162.559 194.339C162.35 194.337 162.144 194.284 161.955 194.183H161.955Z" fill="#14F50F"/>
<path id="Vector_24" d="M199.241 145.389C199.386 145.903 199.429 146.446 199.369 146.981C199.309 147.516 199.146 148.03 198.893 148.486C198.639 148.941 198.301 149.328 197.902 149.619C197.502 149.91 197.052 150.098 196.582 150.17L179.505 177.588L174.524 171.909L192.876 146.743C192.823 145.837 193.064 144.94 193.553 144.223C194.042 143.505 194.745 143.016 195.53 142.85C196.315 142.683 197.126 142.849 197.81 143.317C198.494 143.785 199.003 144.522 199.241 145.389V145.389Z" fill="#FFB8B8"/>
<path id="Vector_25" d="M183.454 174.37C183.479 174.606 183.458 174.845 183.394 175.071C183.329 175.297 183.223 175.505 183.082 175.68L178.146 181.797C177.547 182.804 176.621 183.5 175.571 183.731C174.522 183.963 173.434 183.711 172.547 183.032C171.66 182.353 171.046 181.301 170.84 180.108C170.633 178.915 170.851 177.677 171.446 176.666L174.619 169.159C174.71 168.945 174.84 168.755 175.001 168.604C175.162 168.452 175.349 168.341 175.551 168.279C175.753 168.217 175.964 168.205 176.17 168.245C176.376 168.284 176.572 168.373 176.745 168.507L182.826 173.192C182.999 173.325 183.144 173.5 183.253 173.703C183.361 173.906 183.43 174.133 183.454 174.37V174.37Z" fill="#14F50F"/>
<path id="Vector_26" d="M178.527 159.737C178.522 158.973 178.429 158.214 178.249 157.478C177.055 152.456 172.645 149.442 168.219 150.199C167.359 149.918 166.468 149.776 165.572 149.777V149.777C163.295 149.777 161.092 150.704 159.362 152.389C157.633 154.075 156.49 156.409 156.14 158.97L152.565 185.151H171.885L175.005 162.304C175.121 161.455 175.148 160.593 175.086 159.737H178.527Z" fill="#2F2E41"/>
<path id="Vector_27" d="M202.539 284.286H138.844C138.764 284.286 138.687 284.25 138.63 284.186C138.574 284.121 138.542 284.034 138.542 283.943C138.542 283.852 138.574 283.764 138.63 283.7C138.687 283.636 138.764 283.599 138.844 283.599H202.539C202.619 283.599 202.696 283.636 202.753 283.7C202.809 283.764 202.841 283.852 202.841 283.943C202.841 284.034 202.809 284.121 202.753 284.186C202.696 284.25 202.619 284.286 202.539 284.286Z" fill="#CCCCCC"/>
<path id="Vector_28" d="M266.709 115.662C267.15 115.614 267.596 115.676 268.014 115.845C268.433 116.014 268.813 116.285 269.129 116.639C269.446 116.993 269.69 117.422 269.845 117.895C269.999 118.369 270.061 118.875 270.025 119.378L279.899 124.322L275.189 127.781L266.535 122.556C265.796 122.431 265.123 122.003 264.643 121.351C264.163 120.7 263.909 119.871 263.931 119.021C263.952 118.171 264.247 117.36 264.759 116.741C265.271 116.122 265.965 115.738 266.709 115.662V115.662Z" fill="#A0616A"/>
<path id="Vector_29" d="M306.536 109.495C310.63 109.495 313.95 105.718 313.95 101.06C313.95 96.4012 310.63 92.6246 306.536 92.6246C302.441 92.6246 299.121 96.4012 299.121 101.06C299.121 105.718 302.441 109.495 306.536 109.495Z" fill="#A0616A"/>
<path id="Vector_30" d="M293.117 221.338L289.416 221.337L287.655 205.097L293.117 205.097L293.117 221.338Z" fill="#A0616A"/>
<path id="Vector_31" d="M294.06 225.419L282.127 225.418V225.247C282.127 224.553 282.247 223.866 282.481 223.224C282.714 222.583 283.056 222.001 283.488 221.51C283.919 221.019 284.431 220.63 284.995 220.365C285.558 220.099 286.162 219.962 286.772 219.962H286.772L294.061 219.963L294.06 225.419Z" fill="#2F2E41"/>
<path id="Vector_32" d="M308.512 221.338L304.811 221.337L303.051 205.097L308.513 205.097L308.512 221.338Z" fill="#A0616A"/>
<path id="Vector_33" d="M309.456 225.419L297.523 225.418V225.247C297.523 224.553 297.643 223.866 297.876 223.224C298.11 222.583 298.452 222.001 298.883 221.51C299.315 221.019 299.827 220.63 300.39 220.365C300.954 220.099 301.558 219.962 302.168 219.962H302.168L309.456 219.963L309.456 225.419Z" fill="#2F2E41"/>
<path id="Vector_34" d="M308.337 217.878C308.281 217.878 308.226 217.874 308.171 217.867L302.754 217.108C302.436 217.064 302.143 216.894 301.925 216.628C301.707 216.362 301.579 216.017 301.563 215.653L299.984 175.209C299.979 175.094 299.94 174.984 299.874 174.898C299.807 174.811 299.718 174.752 299.618 174.73C299.519 174.708 299.417 174.725 299.327 174.777C299.237 174.829 299.164 174.914 299.122 175.018L295.066 190.399L294.231 215.105C294.224 215.318 294.178 215.527 294.097 215.719C294.015 215.911 293.899 216.082 293.757 216.22C293.614 216.359 293.448 216.462 293.269 216.524C293.09 216.586 292.901 216.605 292.715 216.58L288.024 215.952C287.688 215.908 287.379 215.723 287.157 215.434C286.936 215.144 286.817 214.771 286.824 214.387L287.223 191.131L290.401 154.626L290.543 154.632L309.87 155.48L309.695 216.338C309.694 216.747 309.55 217.139 309.296 217.427C309.041 217.716 308.696 217.878 308.337 217.878H308.337Z" fill="#2F2E41"/>
<path id="Vector_35" d="M309.137 158.816C309.125 158.816 309.114 158.816 309.102 158.815L289.637 158.235C289.446 158.23 289.259 158.178 289.087 158.084C288.914 157.991 288.762 157.857 288.638 157.691C288.514 157.526 288.423 157.333 288.369 157.125C288.315 156.916 288.301 156.697 288.327 156.482L292.067 125.163C292.301 123.049 292.924 121.014 293.895 119.191C294.867 117.369 296.165 115.801 297.706 114.588C299.061 113.527 300.6 112.808 302.22 112.479C303.84 112.15 305.503 112.22 307.097 112.683C313.891 114.642 317.967 122.942 316.182 131.185L310.456 157.64C310.382 157.975 310.213 158.272 309.974 158.485C309.735 158.698 309.441 158.814 309.137 158.816V158.816Z" fill="#3F3D56"/>
<path id="Vector_36" d="M283.602 133.946C282.319 133.948 281.064 133.523 279.99 132.725L268.639 124.252C268.473 124.128 268.332 123.964 268.228 123.772C268.123 123.58 268.057 123.364 268.034 123.139C268.011 122.915 268.032 122.687 268.095 122.472C268.158 122.258 268.261 122.062 268.398 121.898L270.107 119.844C270.294 119.618 270.536 119.462 270.801 119.396C271.067 119.329 271.344 119.355 271.596 119.47L284.275 125.215L296.021 115.672C296.57 115.226 297.195 114.914 297.855 114.757C298.516 114.599 299.198 114.6 299.859 114.758C300.519 114.916 301.143 115.228 301.692 115.674C302.241 116.121 302.703 116.693 303.047 117.353C303.392 118.013 303.613 118.747 303.695 119.509C303.778 120.271 303.72 121.044 303.526 121.78C303.333 122.515 303.007 123.197 302.569 123.782C302.132 124.367 301.593 124.842 300.986 125.177L286.469 133.199C285.575 133.692 284.595 133.947 283.602 133.946V133.946Z" fill="#3F3D56"/>
<path id="Vector_37" d="M309.105 109.127C310.37 109.466 311.896 109.727 312.8 108.665C312.96 108.464 313.103 108.247 313.227 108.016L314.409 105.963C315.314 104.39 316.236 102.776 316.619 100.948C316.839 99.8971 316.873 98.807 316.72 97.7409C316.567 96.6749 316.229 95.6541 315.726 94.7379C315.223 93.8216 314.565 93.0283 313.791 92.4038C313.016 91.7793 312.14 91.3362 311.213 91.1002C309.449 90.6507 307.722 89.8772 305.918 90.0183C304.114 90.1594 301.998 90.1131 300.484 88.988C300.578 89.4896 301.088 91.7058 301.088 91.7058C301.088 91.7058 298.812 94.0819 298.355 94.6744C298.953 94.373 299.603 94.2315 300.257 94.2607C300.91 94.29 301.548 94.4892 302.123 94.8431C302.698 95.1971 303.194 95.6963 303.573 96.3023C303.952 96.9084 304.204 97.6053 304.309 98.3394C304.438 99.2412 304.362 100.241 304.833 100.981C305.281 101.685 306.085 101.932 306.76 102.339C307.733 102.969 308.476 103.975 308.855 105.175C309.234 106.374 309.224 107.688 308.827 108.879L309.105 109.127Z" fill="#2F2E41"/>
<path id="Vector_38" d="M300.203 161.837H238.744C237.972 161.836 237.231 161.486 236.685 160.865C236.138 160.243 235.831 159.401 235.83 158.522V122.958C235.831 122.079 236.138 121.237 236.685 120.615C237.231 119.994 237.972 119.644 238.744 119.643H300.203C300.975 119.644 301.716 119.994 302.262 120.615C302.808 121.237 303.116 122.079 303.117 122.958V158.522C303.116 159.401 302.808 160.243 302.262 160.865C301.716 161.486 300.975 161.836 300.203 161.837V161.837Z" fill="#CCCCCC"/>
<path id="Vector_39" d="M299.496 159.426H239.451C239.053 159.425 238.671 159.245 238.39 158.925C238.108 158.605 237.95 158.171 237.949 157.718V123.762C237.95 123.309 238.108 122.875 238.39 122.555C238.671 122.235 239.053 122.055 239.451 122.054H299.496C299.894 122.055 300.276 122.235 300.557 122.555C300.839 122.875 300.997 123.309 300.997 123.762V157.718C300.997 158.171 300.839 158.605 300.557 158.925C300.276 159.245 299.894 159.425 299.496 159.426V159.426Z" fill="white"/>
<path id="Vector_40" d="M296.019 167.999L289.266 160.316L297.924 160.565V167.101C297.926 167.353 297.861 167.599 297.738 167.809C297.616 168.018 297.44 168.18 297.235 168.274C297.097 168.339 296.95 168.373 296.801 168.374C296.655 168.373 296.511 168.34 296.377 168.276C296.242 168.211 296.121 168.117 296.019 167.999V167.999Z" fill="#CCCCCC"/>
<path id="Vector_41" d="M292.185 139.217H261.809C261.435 139.217 261.075 139.048 260.81 138.746C260.545 138.445 260.396 138.036 260.396 137.61C260.396 137.184 260.545 136.775 260.81 136.473C261.075 136.172 261.435 136.003 261.809 136.003H292.185C292.56 136.003 292.919 136.172 293.184 136.473C293.449 136.775 293.598 137.184 293.598 137.61C293.598 138.036 293.449 138.445 293.184 138.746C292.919 139.048 292.56 139.217 292.185 139.217V139.217Z" fill="#CCCCCC"/>
<path id="Vector_42" d="M282.295 132.386H261.809C261.624 132.386 261.44 132.345 261.268 132.264C261.096 132.184 260.94 132.065 260.809 131.916C260.678 131.767 260.573 131.589 260.502 131.394C260.431 131.199 260.394 130.99 260.394 130.779C260.394 130.567 260.431 130.358 260.502 130.163C260.573 129.968 260.678 129.79 260.809 129.641C260.94 129.492 261.096 129.373 261.268 129.293C261.44 129.212 261.624 129.171 261.809 129.171H282.295C282.67 129.171 283.029 129.341 283.294 129.642C283.559 129.943 283.708 130.352 283.708 130.779C283.708 131.205 283.559 131.614 283.294 131.915C283.029 132.217 282.67 132.386 282.295 132.386Z" fill="#CCCCCC"/>
<path id="Vector_43" d="M249.235 139.217C251.673 139.217 253.65 136.968 253.65 134.194C253.65 131.42 251.673 129.171 249.235 129.171C246.796 129.171 244.82 131.42 244.82 134.194C244.82 136.968 246.796 139.217 249.235 139.217Z" fill="#14F50F"/>
<path id="Vector_44" d="M282.824 152.309C283.605 152.309 284.237 151.589 284.237 150.701C284.237 149.814 283.605 149.094 282.824 149.094C282.044 149.094 281.411 149.814 281.411 150.701C281.411 151.589 282.044 152.309 282.824 152.309Z" fill="#E6E6E6"/>
<path id="Vector_45" d="M287.769 152.309C288.55 152.309 289.182 151.589 289.182 150.701C289.182 149.814 288.55 149.094 287.769 149.094C286.989 149.094 286.356 149.814 286.356 150.701C286.356 151.589 286.989 152.309 287.769 152.309Z" fill="#E6E6E6"/>
<path id="Vector_46" d="M292.714 152.309C293.494 152.309 294.127 151.589 294.127 150.701C294.127 149.814 293.494 149.094 292.714 149.094C291.934 149.094 291.301 149.814 291.301 150.701C291.301 151.589 291.934 152.309 292.714 152.309Z" fill="#E6E6E6"/>
<path id="Vector_47" d="M299.251 157.608C299.3 157.106 299.445 156.622 299.675 156.191C299.906 155.76 300.217 155.391 300.587 155.112C300.956 154.832 301.375 154.648 301.814 154.572C302.253 154.497 302.701 154.532 303.127 154.675L309.401 144.691L311.413 150.644L305.146 159.212C304.888 160.009 304.382 160.671 303.723 161.073C303.064 161.474 302.299 161.586 301.572 161.389C300.846 161.191 300.208 160.697 299.78 160C299.352 159.303 299.164 158.452 299.251 157.608H299.251Z" fill="#A0616A"/>
<path id="Vector_48" d="M306.438 157.069C306.339 157.078 306.24 157.075 306.142 157.06C305.945 157.03 305.756 156.951 305.589 156.829C305.421 156.707 305.28 156.544 305.174 156.353L303.848 153.96C303.702 153.698 303.629 153.393 303.638 153.084C303.647 152.775 303.738 152.476 303.899 152.226L311.929 139.672L306.71 124.363C306.244 123.016 306.261 121.514 306.759 120.182C307.256 118.85 308.194 117.793 309.37 117.24C310.035 116.923 310.753 116.777 311.473 116.814C312.192 116.85 312.896 117.067 313.533 117.45C314.171 117.833 314.725 118.372 315.158 119.028C315.59 119.683 315.889 120.44 316.034 121.243L319.272 139.23C319.497 140.499 319.431 141.812 319.079 143.043C318.728 144.273 318.102 145.38 317.265 146.255L307.239 156.67C307.018 156.9 306.736 157.04 306.438 157.069Z" fill="#3F3D56"/>
<path id="Vector_49" d="M323.289 226.245H259.594C259.513 226.245 259.437 226.209 259.38 226.144C259.323 226.08 259.292 225.993 259.292 225.901C259.292 225.81 259.323 225.723 259.38 225.659C259.437 225.594 259.513 225.558 259.594 225.558H323.289C323.369 225.558 323.446 225.594 323.503 225.659C323.559 225.723 323.591 225.81 323.591 225.901C323.591 225.993 323.559 226.08 323.503 226.144C323.446 226.209 323.369 226.245 323.289 226.245Z" fill="#CCCCCC"/>
<path id="Vector_50" d="M114.578 140.771H53.1197C52.3471 140.77 51.6064 140.42 51.0601 139.799C50.5138 139.177 50.2066 138.334 50.2057 137.455V101.892C50.2066 101.013 50.5138 100.171 51.0601 99.5491C51.6064 98.9276 52.3471 98.578 53.1197 98.577H114.578C115.351 98.578 116.091 98.9276 116.638 99.5491C117.184 100.171 117.491 101.013 117.492 101.892V137.455C117.491 138.334 117.184 139.177 116.638 139.799C116.091 140.42 115.351 140.77 114.578 140.771V140.771Z" fill="#CCCCCC"/>
<path id="Vector_51" d="M113.872 138.36H53.8261C53.4281 138.359 53.0465 138.179 52.7651 137.859C52.4837 137.539 52.3254 137.105 52.325 136.652V102.696C52.3254 102.243 52.4837 101.809 52.7651 101.489C53.0465 101.169 53.4281 100.989 53.8261 100.988H113.872C114.27 100.989 114.651 101.169 114.933 101.489C115.214 101.809 115.372 102.243 115.373 102.696V136.652C115.372 137.105 115.214 137.539 114.933 137.859C114.651 138.179 114.27 138.359 113.872 138.36Z" fill="white"/>
<path id="Vector_52" d="M110.394 146.933L103.641 139.25L112.299 139.499V146.035C112.301 146.287 112.237 146.533 112.114 146.743C111.991 146.952 111.816 147.114 111.61 147.208C111.473 147.273 111.325 147.307 111.176 147.308C111.031 147.307 110.886 147.274 110.752 147.209C110.618 147.145 110.496 147.051 110.394 146.933V146.933Z" fill="#CCCCCC"/>
<path id="Vector_53" d="M106.561 118.151H76.1848C75.81 118.151 75.4507 117.982 75.1857 117.68C74.9208 117.379 74.7719 116.97 74.7719 116.544C74.7719 116.117 74.9208 115.709 75.1857 115.407C75.4507 115.106 75.81 114.936 76.1848 114.936H106.561C106.935 114.936 107.295 115.106 107.56 115.407C107.825 115.709 107.974 116.117 107.974 116.544C107.974 116.97 107.825 117.379 107.56 117.68C107.295 117.982 106.935 118.151 106.561 118.151V118.151Z" fill="#CCCCCC"/>
<path id="Vector_54" d="M96.6709 111.32H76.1848C75.81 111.32 75.4507 111.15 75.1857 110.849C74.9208 110.548 74.7719 110.139 74.7719 109.712C74.7719 109.286 74.9208 108.877 75.1857 108.576C75.4507 108.274 75.81 108.105 76.1848 108.105H96.6709C97.0456 108.105 97.405 108.274 97.6699 108.576C97.9349 108.877 98.0838 109.286 98.0838 109.712C98.0838 110.139 97.9349 110.548 97.6699 110.849C97.405 111.15 97.0456 111.32 96.6709 111.32V111.32Z" fill="#CCCCCC"/>
<path id="Vector_55" d="M63.6104 118.151C66.0488 118.151 68.0256 115.902 68.0256 113.128C68.0256 110.354 66.0488 108.105 63.6104 108.105C61.172 108.105 59.1953 110.354 59.1953 113.128C59.1953 115.902 61.172 118.151 63.6104 118.151Z" fill="#14F50F"/>
<path id="Vector_56" d="M97.1998 131.243C97.9801 131.243 98.6127 130.523 98.6127 129.635C98.6127 128.748 97.9801 128.028 97.1998 128.028C96.4195 128.028 95.787 128.748 95.787 129.635C95.787 130.523 96.4195 131.243 97.1998 131.243Z" fill="#E6E6E6"/>
<path id="Vector_57" d="M102.145 131.243C102.925 131.243 103.558 130.523 103.558 129.635C103.558 128.748 102.925 128.028 102.145 128.028C101.364 128.028 100.732 128.748 100.732 129.635C100.732 130.523 101.364 131.243 102.145 131.243Z" fill="#E6E6E6"/>
<path id="Vector_58" d="M107.09 131.243C107.87 131.243 108.503 130.523 108.503 129.635C108.503 128.748 107.87 128.028 107.09 128.028C106.309 128.028 105.677 128.748 105.677 129.635C105.677 130.523 106.309 131.243 107.09 131.243Z" fill="#E6E6E6"/>
<path id="Vector_59" d="M112.029 95.1601C111.612 95.3311 111.232 95.6042 110.918 95.9602C110.603 96.3161 110.361 96.7462 110.208 97.2202C110.055 97.6942 109.995 98.2006 110.033 98.7036C110.071 99.2067 110.205 99.6942 110.426 100.132L103.356 109.401L108.914 110.239L114.775 101.308C115.397 100.836 115.845 100.122 116.034 99.2993C116.223 98.477 116.141 97.6043 115.803 96.8464C115.464 96.0886 114.893 95.4984 114.198 95.1876C113.502 94.8768 112.731 94.867 112.029 95.1601V95.1601Z" fill="#FFB8B8"/>
<path id="Vector_60" d="M64.8233 98.8712C64.9741 99.346 65.0316 99.8527 64.9916 100.356C64.9517 100.858 64.8153 101.345 64.5922 101.782C64.369 102.218 64.0644 102.593 63.6999 102.881C63.3354 103.169 62.9198 103.363 62.4825 103.448L60.7231 115.557L56.6093 111.225L58.9107 100.39C58.8332 99.5449 59.0309 98.6964 59.4664 98.0058C59.902 97.3151 60.5451 96.8302 61.2739 96.643C62.0027 96.4557 62.7666 96.5791 63.4208 96.9898C64.075 97.4005 64.574 98.0699 64.8233 98.8712V98.8712Z" fill="#FFB8B8"/>
<path id="Vector_61" d="M75.8722 221.338L79.5732 221.337L81.3338 205.097L75.8716 205.097L75.8722 221.338Z" fill="#FFB8B8"/>
<path id="Vector_62" d="M74.9282 219.963L82.2166 219.962H82.2169C82.8268 219.962 83.4308 220.099 83.9944 220.365C84.5579 220.63 85.0699 221.019 85.5012 221.51C85.9325 222.001 86.2747 222.583 86.5081 223.224C86.7415 223.866 86.8617 224.553 86.8617 225.247V225.418L74.9284 225.419L74.9282 219.963Z" fill="#2F2E41"/>
<path id="Vector_63" d="M56.8541 221.338L60.5551 221.337L62.3156 205.097L56.8535 205.097L56.8541 221.338Z" fill="#FFB8B8"/>
<path id="Vector_64" d="M55.91 219.963L63.1984 219.962H63.1987C63.8087 219.962 64.4127 220.099 64.9762 220.365C65.5398 220.63 66.0518 221.019 66.4831 221.51C66.9144 222.001 67.2566 222.583 67.49 223.224C67.7234 223.866 67.8435 224.553 67.8435 225.247V225.418L55.9103 225.419L55.91 219.963Z" fill="#2F2E41"/>
<path id="Vector_65" d="M75.0997 110.456C79.1945 110.456 82.514 106.679 82.514 102.021C82.514 97.3619 79.1945 93.5853 75.0997 93.5853C71.0048 93.5853 67.6853 97.3619 67.6853 102.021C67.6853 106.679 71.0048 110.456 75.0997 110.456Z" fill="#FFB8B8"/>
<path id="Vector_66" d="M74.2109 215.942L73.5979 171.499C73.5963 171.373 73.5544 171.253 73.4801 171.16C73.4058 171.067 73.3042 171.008 73.1945 170.994C73.0847 170.981 72.9743 171.013 72.8841 171.085C72.7938 171.158 72.73 171.265 72.7046 171.388L62.6548 214.859C62.5792 215.207 62.4009 215.515 62.1497 215.731C61.8986 215.947 61.5898 216.059 61.275 216.047L55.7537 215.778C55.566 215.769 55.382 215.716 55.2133 215.622C55.0447 215.527 54.895 215.394 54.7738 215.231C54.6527 215.068 54.5626 214.878 54.5092 214.673C54.4559 214.468 54.4405 214.252 54.4641 214.04L62.9917 158.177L63.0091 158.019L86.7613 159.298L86.9162 159.306L81.8229 216.035C81.7961 216.424 81.642 216.786 81.391 217.051C81.1401 217.316 80.8107 217.464 80.4682 217.466H75.5692C75.2127 217.464 74.8709 217.304 74.617 217.019C74.3631 216.734 74.2174 216.348 74.2109 215.942V215.942Z" fill="#483935"/>
<path id="Vector_67" d="M92.9708 163.063L58.5035 159.844C58.2954 159.825 58.0941 159.751 57.9152 159.629C57.7362 159.507 57.5844 159.339 57.4716 159.14C57.3588 158.94 57.288 158.713 57.2647 158.477C57.2413 158.241 57.2662 158.002 57.3372 157.779L62.7651 140.706L63.0774 120.442C63.0887 119.706 63.2284 118.98 63.4881 118.307C63.7479 117.633 64.1227 117.025 64.5907 116.517C65.0587 116.009 65.6107 115.612 66.2147 115.349C66.8186 115.086 67.4624 114.962 68.1088 114.984L70.4009 112.62H78.7989L79.5302 113.711L85.3736 114.733C86.4144 114.92 87.3748 115.482 88.113 116.338C88.8512 117.193 89.328 118.296 89.4731 119.484L94.4282 161.316C94.454 161.534 94.4385 161.756 94.3828 161.967C94.327 162.178 94.2324 162.373 94.1051 162.539C93.9778 162.705 93.8208 162.838 93.6446 162.929C93.4685 163.02 93.2772 163.068 93.0837 163.068C93.0462 163.068 93.0086 163.066 92.9708 163.063Z" fill="#2F2E41"/>
<path id="Vector_68" d="M86.2553 116.697L100.952 111.798L107.603 101.836C107.786 101.561 108.044 101.365 108.337 101.276C108.63 101.188 108.94 101.214 109.218 101.35L113.371 103.369C113.548 103.455 113.707 103.583 113.837 103.744C113.968 103.906 114.066 104.096 114.127 104.304C114.187 104.512 114.208 104.733 114.188 104.95C114.168 105.168 114.108 105.379 114.011 105.568L109.04 115.272C108.231 116.86 106.999 118.113 105.522 118.852L88.2367 127.545L86.2553 116.697Z" fill="#2F2E41"/>
<path id="Vector_69" d="M58.0598 124.025C57.1816 123.305 56.4812 122.34 56.0262 121.223C55.5713 120.105 55.3772 118.873 55.4626 117.646L56.1075 107.924C56.1341 107.535 56.2883 107.173 56.5393 106.908C56.7903 106.643 57.1198 106.495 57.4622 106.495H57.4742L62.344 106.544C62.5435 106.546 62.7401 106.598 62.92 106.696C63.0998 106.794 63.2584 106.937 63.3845 107.113C63.5106 107.288 63.6011 107.494 63.6496 107.714C63.698 107.934 63.7033 108.164 63.665 108.386L62.7614 113.631L69.2095 116.731L63.7797 128.749L58.0598 124.025Z" fill="#2F2E41"/>
<path id="Vector_70" d="M79.4129 91.9059C79.4129 91.9059 71.6592 87.1561 67.433 92.7619C63.2067 98.3678 69.0431 107.134 69.0431 107.134L77.3592 108.327C77.3592 108.327 77.6611 101.896 79.6411 102.021C81.6211 102.146 87.7703 94.0301 79.4129 91.9059Z" fill="#2F2E41"/>
<path id="Vector_71" d="M101.109 225.901H37.4137C37.3336 225.901 37.2568 225.865 37.2002 225.801C37.1436 225.736 37.1118 225.649 37.1118 225.558C37.1118 225.467 37.1436 225.38 37.2002 225.315C37.2568 225.251 37.3336 225.215 37.4137 225.215H101.109C101.189 225.215 101.266 225.251 101.323 225.315C101.379 225.38 101.411 225.467 101.411 225.558C101.411 225.649 101.379 225.736 101.323 225.801C101.266 225.865 101.189 225.901 101.109 225.901Z" fill="#CCCCCC"/>
</g>
</svg>
